<!-- Generated by IcoMoon.io -->
<svg version="1.1" xmlns="http://www.w3.org/2000/svg" width="1216" height="1024" viewBox="0 0 1216 1024">
<title></title>
<g id="icomoon-ignore">
</g>
<path d="M1200 576c-8.832 0-16 7.168-16 16v384c0 8.832-7.168 16-16 16h-1120c-8.832 0-16-7.168-16-16v-384c0-8.832-7.168-16-16-16s-16 7.168-16 16v384c0 26.464 21.536 48 48 48h1120c26.464 0 48-21.536 48-48v-384c0-8.832-7.168-16-16-16zM816 160c8.832 0 16-7.168 16-16v-96c0-26.464-21.536-48-48-48h-352c-26.464 0-48 21.536-48 48v96c0 8.832 7.168 16 16 16s16-7.168 16-16v-96c0-8.832 7.168-16 16-16h352c8.832 0 16 7.168 16 16v96c0 8.832 7.168 16 16 16zM1168 224h-1120c-26.464 0-48 21.536-48 48v158.656c0 88.896 302.592 208 612 208 305.376 0 604-119.104 604-208v-158.656c0-26.464-21.536-48-48-48zM1184 430.656c0 56.448-270.624 176-572 176-305.6 0-580-119.52-580-176v-158.656c0-8.832 7.168-16 16-16h1120c8.832 0 16 7.168 16 16v158.656zM612 736c30.176 0 61.536-1.248 93.248-3.712 8.8-0.672 15.392-8.384 14.688-17.216-0.672-8.8-8.064-15.552-17.216-14.688-64.448 5.024-125.088 4.8-189.408-0.64-8.448-0.864-16.544 5.792-17.28 14.592s5.792 16.544 14.592 17.28c34.432 2.912 68.544 4.384 101.376 4.384z"></path>
</svg>
