<svg xmlns="http://www.w3.org/2000/svg" viewBox="0 0 64.37 49.05"><defs><style>.cls-1{fill:#3a7cbf;}</style></defs><title>gearicon</title><g id="Layer_2" data-name="Layer 2"><g id="Layer_1-2" data-name="Layer 1"><path class="cls-1" d="M5.66,33.3a1.26,1.26,0,0,1,.74.7l.54,1.29a1.25,1.25,0,0,1,0,1l-2.14,3.5A2.17,2.17,0,0,0,5,42.27l1.81,1.81a2.23,2.23,0,0,0,2.47.22l3.5-2.14a1.23,1.23,0,0,1,1,0l1.29.53a1.25,1.25,0,0,1,.66.72l1,4A2.22,2.22,0,0,0,18.59,49s.53,0,1.33,0,1.33,0,1.33,0a2.21,2.21,0,0,0,1.88-1.62l1-4a1.26,1.26,0,0,1,.7-.74l1.29-.54a1.34,1.34,0,0,1,1,0l3.5,2.14a2,2,0,0,0,1.07.29,2.15,2.15,0,0,0,1.44-.54l1.81-1.81a2.16,2.16,0,0,0,.22-2.47L33,36.27a1.27,1.27,0,0,1,0-1L33.46,34a1.25,1.25,0,0,1,.72-.66l4-1a2.22,2.22,0,0,0,1.62-1.88s0-.53,0-1.33,0-1.33,0-1.33a2.22,2.22,0,0,0-1.62-1.88l-4-1a1.26,1.26,0,0,1-.74-.7L32.91,23a1.25,1.25,0,0,1,0-1l2.14-3.5a2.17,2.17,0,0,0-.25-2.5L33,14.18A2.23,2.23,0,0,0,30.56,14l-3.5,2.14a1.23,1.23,0,0,1-1,0l-1.29-.53a1.25,1.25,0,0,1-.66-.72l-1-4a2.22,2.22,0,0,0-1.88-1.62s-.53,0-1.33,0-1.33,0-1.33,0a2.22,2.22,0,0,0-1.88,1.62l-1,4a1.26,1.26,0,0,1-.7.74l-1.29.54a1.34,1.34,0,0,1-1,0L9.28,14a2.2,2.2,0,0,0-2.5.25L5,16a2.16,2.16,0,0,0-.22,2.47L6.89,22a1.27,1.27,0,0,1,0,1L6.38,24.3a1.25,1.25,0,0,1-.72.66l-4,1A2.22,2.22,0,0,0,0,27.8s0,.53,0,1.33,0,1.33,0,1.33a2.22,2.22,0,0,0,1.62,1.88ZM1.53,29.13c0-.7,0-1.18,0-1.19A.71.71,0,0,1,2,27.41l4-1a2.74,2.74,0,0,0,1.8-1.6l.5-1.21a2.76,2.76,0,0,0-.11-2.45l-2.14-3.5a.66.66,0,0,1,0-.62l1.75-1.75a.69.69,0,0,1,.65-.06L12,17.4a2.89,2.89,0,0,0,2.4.13L15.6,17a2.76,2.76,0,0,0,1.65-1.81l1-4a.71.71,0,0,1,.53-.46s.49,0,1.19,0,1.18,0,1.19,0a.71.71,0,0,1,.53.45l1,4A2.74,2.74,0,0,0,24.2,17l1.21.5a2.81,2.81,0,0,0,2.45-.11l3.5-2.14a.77.77,0,0,1,.62,0L33.73,17a.66.66,0,0,1,.06.65l-2.14,3.5a2.74,2.74,0,0,0-.13,2.4L32,24.8a2.76,2.76,0,0,0,1.81,1.65l4,1a.71.71,0,0,1,.46.53s0,.49,0,1.19,0,1.18,0,1.19a.71.71,0,0,1-.45.53l-4,1a2.74,2.74,0,0,0-1.8,1.6l-.5,1.21a2.76,2.76,0,0,0,.11,2.45l2.14,3.5a.66.66,0,0,1,0,.62L32,42.94a.61.61,0,0,1-.38.12.53.53,0,0,1-.27-.06l-3.5-2.14a2.89,2.89,0,0,0-2.4-.13l-1.21.5A2.76,2.76,0,0,0,22.6,43l-1,4a.71.71,0,0,1-.53.46s-.49,0-1.19,0-1.18,0-1.19,0A.71.71,0,0,1,18.2,47l-1-4a2.74,2.74,0,0,0-1.6-1.8l-1.21-.5a2.5,2.5,0,0,0-1.1-.23,2.62,2.62,0,0,0-1.35.35L8.49,43a.78.78,0,0,1-.62,0L6.11,41.22a.66.66,0,0,1-.06-.65l2.14-3.5a2.74,2.74,0,0,0,.13-2.4l-.5-1.21A2.76,2.76,0,0,0,6,31.81l-4-1a.71.71,0,0,1-.46-.53S1.53,29.83,1.53,29.13Zm18.39,8.43a8.43,8.43,0,1,0-8.43-8.43A8.44,8.44,0,0,0,19.92,37.56Zm0-15.32a6.9,6.9,0,1,1-6.9,6.9A6.9,6.9,0,0,1,19.92,22.23ZM42.11,8.16a.65.65,0,0,1-.4.21l-2.85,0a1.78,1.78,0,0,0-1.61,1.14s-.13.36-.26.9-.2.92-.2.92a1.78,1.78,0,0,0,.89,1.78l2.51,1.32a.67.67,0,0,1,.25.42l.14,1a.65.65,0,0,1-.13.43l-2,2a1.74,1.74,0,0,0-.29,2l.92,1.53a1.77,1.77,0,0,0,1.89.66l2.8-.86a.66.66,0,0,1,.39.13l.79.58a.66.66,0,0,1,.21.4l0,2.84a1.77,1.77,0,0,0,1.14,1.63s.36.13.9.26.92.2.92.2l.24,0a1.79,1.79,0,0,0,1.54-.91l1.32-2.51a.67.67,0,0,1,.42-.25l1-.15a.67.67,0,0,1,.38.13l2,2a1.7,1.7,0,0,0,2,.29l1.53-.92a1.73,1.73,0,0,0,.66-1.89l-.85-2.71a.66.66,0,0,1,.12-.48l.58-.79a.65.65,0,0,1,.4-.21l2.85,0a1.78,1.78,0,0,0,1.61-1.14s.13-.36.26-.9.2-.92.2-.92a1.78,1.78,0,0,0-.89-1.78L60.95,13.2a.67.67,0,0,1-.25-.42l-.14-1a.65.65,0,0,1,.13-.43l2-2a1.74,1.74,0,0,0,.29-2l-.92-1.53a1.78,1.78,0,0,0-1.89-.66l-2.8.86A.66.66,0,0,1,57,5.92l-.79-.58a.66.66,0,0,1-.21-.4l0-2.84A1.77,1.77,0,0,0,54.89.48S54.53.35,54,.21s-.92-.2-.92-.2l-.24,0a1.79,1.79,0,0,0-1.54.91L50,3.43a.67.67,0,0,1-.42.25l-1,.15a.67.67,0,0,1-.38-.13l-2-2a1.7,1.7,0,0,0-2-.29l-1.53.92A1.73,1.73,0,0,0,42,4.18l.85,2.71a.66.66,0,0,1-.12.48ZM43.36,9l.53-.71a2.12,2.12,0,0,0,.38-1.88l-.84-2.71s0-.14,0-.14l1.45-.87.17,0,2,2a2.16,2.16,0,0,0,1.48.59,1.45,1.45,0,0,0,.31,0l.88-.13a2.14,2.14,0,0,0,1.6-1.06l1.32-2.51a.28.28,0,0,1,.18-.09s.33.05.79.17.76.22.77.22a.28.28,0,0,1,.12.17l0,2.84a2.12,2.12,0,0,0,.87,1.67l.71.53a2.16,2.16,0,0,0,1.88.38l2.72-.85c.06,0,.14,0,.13,0l.87,1.45a.24.24,0,0,1,0,.17l-2,2A2.11,2.11,0,0,0,59,12.08l.13.88a2.13,2.13,0,0,0,1.07,1.6l2.51,1.32a.29.29,0,0,1,.09.18s-.05.33-.17.79-.22.76-.22.77a.28.28,0,0,1-.17.12l-2.85,0a2.13,2.13,0,0,0-1.65.87l-.52.71a2.12,2.12,0,0,0-.38,1.88l.84,2.71s0,.14,0,.14l-1.45.87-.17,0-2-2a2.16,2.16,0,0,0-1.48-.59,1.45,1.45,0,0,0-.31,0l-.88.13a2.14,2.14,0,0,0-1.6,1.06L48.5,26a.28.28,0,0,1-.18.09h0s-.33-.05-.79-.17-.76-.22-.77-.22a.28.28,0,0,1-.12-.17l0-2.84A2.12,2.12,0,0,0,45.8,21l-.71-.53A2.12,2.12,0,0,0,43.74,20a1.83,1.83,0,0,0-.54.08L40.48,21c-.07,0-.14,0-.13,0l-.87-1.45a.24.24,0,0,1,0-.17l2-2a2.11,2.11,0,0,0,.56-1.79L42,14.65A2.13,2.13,0,0,0,40.9,13l-2.51-1.32a.29.29,0,0,1-.09-.18s.05-.33.17-.79.22-.76.22-.77a.28.28,0,0,1,.17-.12l2.85,0A2.13,2.13,0,0,0,43.36,9Zm7.21,9.37A4.6,4.6,0,1,0,46,13.8,4.6,4.6,0,0,0,50.57,18.4Zm0-7.66a3.06,3.06,0,1,1-3.06,3.06A3.07,3.07,0,0,1,50.57,10.74Z"/></g></g></svg>