<svg xmlns="http://www.w3.org/2000/svg" viewBox="0 0 400 80"><defs><style>.cls-1{fill:#3a225f;}.cls-2{fill:#fce800;}</style></defs><title>Goal</title><g id="Layer_2" data-name="Layer 2"><g id="Layer_1-2" data-name="Layer 1"><rect class="cls-1" width="400" height="80"/><path class="cls-2" d="M37.3,43.5a.67.67,0,0,0,1.1-.2h0l3.7-4.4h2.4l-2.8,3.4A.85.85,0,0,0,43,43.4L46.7,39h2.5l-2.8,3.3a.85.85,0,0,0,1.3,1.1h0L51.4,39h1.2a24.17,24.17,0,1,0,0-1.8H51.3l-3.6-4.4a.85.85,0,1,0-1.3,1.1l2.8,3.4H46.8l-3.7-4.4A.85.85,0,1,0,41.8,34l2.8,3.4H42.2L38.5,33a.85.85,0,0,0-1.3,1.1l3.5,4-3.5,4.2a.91.91,0,0,0,.1,1.2ZM77.6,15.6A23.4,23.4,0,1,1,54.1,39h4.7a19.2,19.2,0,1,0,.1-1.6H54.2A23.34,23.34,0,0,1,77.6,15.6ZM65.1,39A12.6,12.6,0,1,0,77.8,26.4a12.72,12.72,0,0,0-12.6,11H60.4a17.38,17.38,0,1,1-.1,1.6Zm1.5,0,4.7.1a6.47,6.47,0,0,0,6.3,6.6,6.4,6.4,0,0,0,6.6-6.3,6.42,6.42,0,0,0-12.6-1.9H66.8a10.79,10.79,0,1,1,8.9,12.4A10.88,10.88,0,0,1,66.6,39Zm10.2-1.5H73.2a4.59,4.59,0,1,1,2.7,5.9,4.78,4.78,0,0,1-3-4.4h3.9a.79.79,0,0,0,.8-.8A.71.71,0,0,0,76.8,37.5Z"/><path class="cls-2" d="M137.1,45.9h-3.9l-2-10.9h0l-2,10.9h-3.9l-3.1-16.3H126l1.7,11.3h.1l1.8-11.3h3.6L135,40.9h.1l1.7-11.3h3.6Z"/><path class="cls-2" d="M145.3,45.9h-3.5V28.6h3.6v7h.1a2.81,2.81,0,0,1,1-1.4,3,3,0,0,1,1.8-.6,3.29,3.29,0,0,1,1.7.4,3.46,3.46,0,0,1,1,1.1,9.83,9.83,0,0,1,.5,1.6,12.1,12.1,0,0,1,.1,1.9V46H148V38.6a5.07,5.07,0,0,0-.2-1.3.87.87,0,0,0-.9-.6,1.1,1.1,0,0,0-1,.6,2.93,2.93,0,0,0-.4,1.6Z"/><path class="cls-2" d="M159.1,44.4a2.38,2.38,0,0,1-.9,1.3,3.45,3.45,0,0,1-1.8.5,4.25,4.25,0,0,1-1.1-.2,2.07,2.07,0,0,1-1-.6,4.44,4.44,0,0,1-.8-1.1,5.08,5.08,0,0,1-.3-1.7,4.48,4.48,0,0,1,.4-2,3.74,3.74,0,0,1,1.2-1.3,5.58,5.58,0,0,1,1.6-.7,11.08,11.08,0,0,1,1.9-.2h.5v-.2a2,2,0,0,0-.4-1.3,1.5,1.5,0,0,0-1.1-.4,2.66,2.66,0,0,0-1.2.3,2.36,2.36,0,0,0-.9.8l-1.6-2.2a4.89,4.89,0,0,1,1.8-1.4,5.45,5.45,0,0,1,2.2-.5,5.22,5.22,0,0,1,2.1.4,3,3,0,0,1,1.4,1.1,5.31,5.31,0,0,1,.8,1.7,9.74,9.74,0,0,1,.2,2.4V46h-3V44.4Zm-.1-3.7h-.6a2.2,2.2,0,0,0-.8.1.86.86,0,0,0-.6.3,1,1,0,0,0-.4.5,1.88,1.88,0,0,0-.2.8,1.69,1.69,0,0,0,.3,1,1.14,1.14,0,0,0,.8.3,1.45,1.45,0,0,0,.7-.2,1.21,1.21,0,0,0,.5-.5,6.89,6.89,0,0,0,.3-.8,2.49,2.49,0,0,0,.1-.8v-.7Z"/><path class="cls-2" d="M169.3,46.1a4.1,4.1,0,0,1-1.1.1,3.07,3.07,0,0,1-2.6-1,4.28,4.28,0,0,1-.8-2.9V36.7h-1.4V33.9h1.4V31h3.5v2.9h2.1v2.8h-2.1v4.8a3.08,3.08,0,0,0,.3,1.3,1,1,0,0,0,.9.4,1.88,1.88,0,0,0,.8-.2v2.8A2.24,2.24,0,0,1,169.3,46.1Z"/><path class="cls-2" d="M172.8,29.7h2.7l-1.4,5.9h-2.4Z"/><path class="cls-2" d="M182.5,37.3a5.5,5.5,0,0,0-.9-.7,1.39,1.39,0,0,0-1.1-.2,1.33,1.33,0,0,0-.8.3,1.14,1.14,0,0,0-.3.8.91.91,0,0,0,.3.7,6.12,6.12,0,0,0,1.2.5c.4.1.7.3,1.1.4a3.77,3.77,0,0,1,1.9,3.2,4.33,4.33,0,0,1-.4,1.9,3.73,3.73,0,0,1-2.3,2,7.84,7.84,0,0,1-1.4.2,5.87,5.87,0,0,1-2.3-.4,6.15,6.15,0,0,1-1.9-1.2l1.8-2.3a3.92,3.92,0,0,0,1,.8,2.66,2.66,0,0,0,1.2.3,1,1,0,0,0,1.1-1.1.89.89,0,0,0-.5-.8c-.4-.2-.9-.4-1.4-.6a4.18,4.18,0,0,1-1-.4,5.5,5.5,0,0,1-.9-.7,2.07,2.07,0,0,1-.6-1,2.3,2.3,0,0,1-.2-1.4,3.92,3.92,0,0,1,.4-1.8,2.94,2.94,0,0,1,1-1.2,3.29,3.29,0,0,1,1.3-.7,3.89,3.89,0,0,1,1.5-.2,6.47,6.47,0,0,1,4,1.5Z"/><path class="cls-2" d="M196.7,46.3c-.2.7-.4,1.3-.6,2a5.07,5.07,0,0,1-.9,1.6,4.12,4.12,0,0,1-1.3,1,4.48,4.48,0,0,1-2,.4,4.1,4.1,0,0,1-1.1-.1,3,3,0,0,1-1-.2l.5-3.3a.9.9,0,0,0,.5.1h.5a1.28,1.28,0,0,0,1-.4,1.8,1.8,0,0,0,.4-.9l.2-.7-3.6-12.3h3.8l1.7,8h0l1.6-8H200Z"/><path class="cls-2" d="M210.8,39.9a11.53,11.53,0,0,1-.3,2.6,7.5,7.5,0,0,1-1,2,4.21,4.21,0,0,1-3.7,1.8,5.37,5.37,0,0,1-2.1-.5,6.53,6.53,0,0,1-1.6-1.3,5.38,5.38,0,0,1-1-2,7.43,7.43,0,0,1-.3-2.6,10.9,10.9,0,0,1,.3-2.6,5.38,5.38,0,0,1,1-2,3.71,3.71,0,0,1,1.7-1.3,4.65,4.65,0,0,1,5.8,1.3,7.5,7.5,0,0,1,1,2A24.62,24.62,0,0,1,210.8,39.9Zm-3.5,0a5.7,5.7,0,0,0-.1-1.3,3.81,3.81,0,0,0-.3-1,1.79,1.79,0,0,0-.5-.7.62.62,0,0,0-.7-.2,1.85,1.85,0,0,0-.7.2,1.79,1.79,0,0,0-.5.7c-.1.3-.2.7-.3,1a10.45,10.45,0,0,0,0,2.5,3.81,3.81,0,0,0,.3,1,1.79,1.79,0,0,0,.5.7.62.62,0,0,0,.7.2,1.45,1.45,0,0,0,.7-.2,1.79,1.79,0,0,0,.5-.7c.1-.3.2-.7.3-1a4.48,4.48,0,0,0,.1-1.2Z"/><path class="cls-2" d="M219,45.9V44.2h0a3.27,3.27,0,0,1-1.1,1.5,2.56,2.56,0,0,1-1.9.6,2.5,2.5,0,0,1-2.6-1.6,9.83,9.83,0,0,1-.5-1.6,12.1,12.1,0,0,1-.1-1.9V33.9h3.6v8a1.42,1.42,0,0,0,.2.6,1.38,1.38,0,0,0,.3.4c.2.1.3.2.5.2a1.1,1.1,0,0,0,1-.6,2.93,2.93,0,0,0,.4-1.6v-7h3.6v12Z"/><path class="cls-2" d="M225.3,33.9h3.5v2h0q.6-2.4,2.4-2.4h.3l.3.1-.2,3.6-.4-.1h-.4a1.88,1.88,0,0,0-.8.2l-.6.6a3.55,3.55,0,0,0-.4.9,4.1,4.1,0,0,0-.1,1.1v6h-3.6Z"/><path class="cls-2" d="M241.6,33v3.3h3.9v3.2h-3.9V46h-3.7V29.7h7.9V33Z"/><path class="cls-2" d="M247.2,33.9h3.5v2h0q.6-2.4,2.4-2.4h.3l.3.1-.2,3.6-.4-.1h-.4a1.88,1.88,0,0,0-.8.2l-.6.6a3.55,3.55,0,0,0-.4.9,4.1,4.1,0,0,0-.1,1.1v6h-3.6Z"/><path class="cls-2" d="M257.8,40.8a3.4,3.4,0,0,0,.1,1c.1.3.2.5.3.8a1.2,1.2,0,0,0,.5.5,1.45,1.45,0,0,0,.7.2,1.28,1.28,0,0,0,1-.4l.6-.9,2.6,1.5a4.65,4.65,0,0,1-4.3,2.9,4.48,4.48,0,0,1-2-.4,4.81,4.81,0,0,1-1.6-1.2,7.81,7.81,0,0,1-1.1-2,8.63,8.63,0,0,1-.4-2.8,8.42,8.42,0,0,1,.4-2.7,5.38,5.38,0,0,1,1-2,4.71,4.71,0,0,1,1.5-1.3,4.55,4.55,0,0,1,2-.5,3.84,3.84,0,0,1,2.1.5,3.53,3.53,0,0,1,1.4,1.3,5,5,0,0,1,.8,2,7.07,7.07,0,0,1,.2,2.5v1Zm2.7-2.3a4.15,4.15,0,0,0-.3-1.6,1,1,0,0,0-1-.6,1.07,1.07,0,0,0-.6.2l-.5.5c-.1.2-.2.5-.3.7a2,2,0,0,0-.1.8Z"/><path class="cls-2" d="M268.6,40.8a3.4,3.4,0,0,0,.1,1c.1.3.2.5.3.8a1.2,1.2,0,0,0,.5.5,1.45,1.45,0,0,0,.7.2,1.28,1.28,0,0,0,1-.4,3.13,3.13,0,0,0,.5-1l2.6,1.5a6.52,6.52,0,0,1-1.6,2.1,5,5,0,0,1-2.6.8,4.48,4.48,0,0,1-2-.4,4.81,4.81,0,0,1-1.6-1.2,7.81,7.81,0,0,1-1.1-2,8.63,8.63,0,0,1-.4-2.8,8.42,8.42,0,0,1,.4-2.7,5.38,5.38,0,0,1,1-2,4.71,4.71,0,0,1,1.5-1.3,4.55,4.55,0,0,1,2-.5,3.84,3.84,0,0,1,2.1.5,3.53,3.53,0,0,1,1.4,1.3,5,5,0,0,1,.8,2,7.07,7.07,0,0,1,.2,2.5v1Zm2.7-2.3a4.15,4.15,0,0,0-.3-1.6,1,1,0,0,0-1-.6,1.07,1.07,0,0,0-.6.2l-.5.5c-.1.2-.2.5-.3.7a2,2,0,0,0-.1.8Z"/><path class="cls-2" d="M282.5,45.9V44.4h0a5.67,5.67,0,0,1-.8,1.3,2.16,2.16,0,0,1-1.7.5,3.37,3.37,0,0,1-1.7-.5,4.07,4.07,0,0,1-1.2-1.4,9,9,0,0,1-.8-2.1,10.68,10.68,0,0,1-.3-2.5,21.05,21.05,0,0,1,.2-2.5,5,5,0,0,1,.8-2,3.74,3.74,0,0,1,1.2-1.3,3.37,3.37,0,0,1,1.7-.5,2,2,0,0,1,1.5.5,3.13,3.13,0,0,1,.9,1.1h.1V28.5H286V45.9Zm.1-6a5.7,5.7,0,0,0-.1-1.3c-.1-.3-.2-.7-.3-1a1.79,1.79,0,0,0-.5-.7.62.62,0,0,0-.7-.2,1.45,1.45,0,0,0-.7.2,1.79,1.79,0,0,0-.5.7c-.1.3-.2.7-.3,1a10.45,10.45,0,0,0,0,2.5,3.81,3.81,0,0,0,.3,1,1.79,1.79,0,0,0,.5.7.62.62,0,0,0,.7.2,1.85,1.85,0,0,0,.7-.2,1.79,1.79,0,0,0,.5-.7c.1-.3.2-.7.3-1a4.48,4.48,0,0,0,.1-1.2Z"/><path class="cls-2" d="M298.1,39.9a11.53,11.53,0,0,1-.3,2.6,7.5,7.5,0,0,1-1,2,4.21,4.21,0,0,1-3.7,1.8,5.37,5.37,0,0,1-2.1-.5,6.53,6.53,0,0,1-1.6-1.3,5.38,5.38,0,0,1-1-2,7.43,7.43,0,0,1-.3-2.6,10.9,10.9,0,0,1,.3-2.6,5.38,5.38,0,0,1,1-2A4,4,0,0,1,291,34a4.49,4.49,0,0,1,5.7,1.3,7.86,7.86,0,0,1,1.4,4.6Zm-3.4,0a5.7,5.7,0,0,0-.1-1.3,3.81,3.81,0,0,0-.3-1,1.79,1.79,0,0,0-.5-.7.62.62,0,0,0-.7-.2,1.85,1.85,0,0,0-.7.2,1.79,1.79,0,0,0-.5.7c-.1.3-.2.7-.3,1a10.45,10.45,0,0,0,0,2.5,3.81,3.81,0,0,0,.3,1,1.79,1.79,0,0,0,.5.7.62.62,0,0,0,.7.2,1.45,1.45,0,0,0,.7-.2,1.79,1.79,0,0,0,.5-.7c.1-.3.2-.7.3-1s.1-.8.1-1.2Z"/><path class="cls-2" d="M303.8,33.9v1.7h0a3.07,3.07,0,0,1,1-1.5,3.31,3.31,0,0,1,3.8,0,3.77,3.77,0,0,1,.9,1.5h0a3,3,0,0,1,.4-.8,4.35,4.35,0,0,1,.6-.7,4.05,4.05,0,0,1,.9-.5,4.25,4.25,0,0,1,1.1-.2,3.29,3.29,0,0,1,1.7.4,3.46,3.46,0,0,1,1,1.1,9.83,9.83,0,0,1,.5,1.6,12.1,12.1,0,0,1,.1,1.9v7.3h-3.6V38.3A5.07,5.07,0,0,0,312,37a.87.87,0,0,0-.9-.6,1.1,1.1,0,0,0-1,.6,2.93,2.93,0,0,0-.4,1.6v7.1h-3.5V38.3A5.07,5.07,0,0,0,306,37a.87.87,0,0,0-.9-.6,1.1,1.1,0,0,0-1,.6,2.93,2.93,0,0,0-.4,1.6v7.1h-3.5v-12Z"/><path class="cls-2" d="M331.6,45.9a7.46,7.46,0,0,1-2.6.4,5.7,5.7,0,0,1-4.8-2.4,8.45,8.45,0,0,1-1.3-2.7,13.45,13.45,0,0,1-.5-3.5,10.6,10.6,0,0,1,.5-3.5,8.45,8.45,0,0,1,1.3-2.7,7,7,0,0,1,2-1.8,5.83,5.83,0,0,1,2.6-.6,6.71,6.71,0,0,1,2.8.6,4.89,4.89,0,0,1,1.8,1.4l-2,2.7a2.94,2.94,0,0,0-2.3-1.2,2,2,0,0,0-1.3.4,3.13,3.13,0,0,0-.9,1.1,4.28,4.28,0,0,0-.5,1.6,13.55,13.55,0,0,0-.2,2,6.8,6.8,0,0,0,.2,2,7.49,7.49,0,0,0,.5,1.6,3.13,3.13,0,0,0,.9,1.1,2,2,0,0,0,1.3.4,2.77,2.77,0,0,0,1.3-.3v-3h-1.8V36.2h5V45A8.82,8.82,0,0,1,331.6,45.9Z"/><path class="cls-2" d="M345.2,39.9a11.53,11.53,0,0,1-.3,2.6,7.5,7.5,0,0,1-1,2,4.21,4.21,0,0,1-3.7,1.8,5.37,5.37,0,0,1-2.1-.5,6.53,6.53,0,0,1-1.6-1.3,5.38,5.38,0,0,1-1-2,7.43,7.43,0,0,1-.3-2.6,10.9,10.9,0,0,1,.3-2.6,5.38,5.38,0,0,1,1-2,4,4,0,0,1,1.6-1.3,4.65,4.65,0,0,1,5.8,1.3,7.5,7.5,0,0,1,1,2A8,8,0,0,1,345.2,39.9Zm-3.4,0a5.7,5.7,0,0,0-.1-1.3,3.81,3.81,0,0,0-.3-1,1.79,1.79,0,0,0-.5-.7.62.62,0,0,0-.7-.2,1.85,1.85,0,0,0-.7.2,1.79,1.79,0,0,0-.5.7c-.1.3-.2.7-.3,1a10.45,10.45,0,0,0,0,2.5,3.81,3.81,0,0,0,.3,1,1.79,1.79,0,0,0,.5.7.62.62,0,0,0,.7.2,1.45,1.45,0,0,0,.7-.2,1.79,1.79,0,0,0,.5-.7c.1-.3.2-.7.3-1a4.48,4.48,0,0,0,.1-1.2Z"/><path class="cls-2" d="M352.3,44.4a2.38,2.38,0,0,1-.9,1.3,3.45,3.45,0,0,1-1.8.5,4.25,4.25,0,0,1-1.1-.2,2.07,2.07,0,0,1-1-.6,4.44,4.44,0,0,1-.8-1.1,5.08,5.08,0,0,1-.3-1.7,3.51,3.51,0,0,1,.5-2,3.74,3.74,0,0,1,1.2-1.3,5.58,5.58,0,0,1,1.6-.7,11.08,11.08,0,0,1,1.9-.2h.5v-.2a2,2,0,0,0-.4-1.3,1.5,1.5,0,0,0-1.1-.4,2.66,2.66,0,0,0-1.2.3,2.36,2.36,0,0,0-.9.8l-1.6-2.2a4.89,4.89,0,0,1,1.8-1.4,5.45,5.45,0,0,1,2.2-.5,5.22,5.22,0,0,1,2.1.4,3.6,3.6,0,0,1,1.4,1.1,5.31,5.31,0,0,1,.8,1.7,9.74,9.74,0,0,1,.2,2.4V46h-3l-.1-1.6Zm-.1-3.7h-.6a2.2,2.2,0,0,0-.8.1.86.86,0,0,0-.6.3,1,1,0,0,0-.4.5,1.88,1.88,0,0,0-.2.8,1.69,1.69,0,0,0,.3,1,1.14,1.14,0,0,0,.8.3,1.45,1.45,0,0,0,.7-.2,1.2,1.2,0,0,0,.5-.5,6.88,6.88,0,0,0,.3-.8,2.49,2.49,0,0,0,.1-.8Z"/><path class="cls-2" d="M358,45.9V28.6h3.7V46l-3.7-.1Z"/><path class="cls-2" d="M369.6,40.5h-3v-1a4.48,4.48,0,0,1,.4-2,4.43,4.43,0,0,1,1.2-1.5l.4-.4c.2-.2.4-.5.6-.7a1.49,1.49,0,0,0,.2-.9,2.66,2.66,0,0,0-.3-1.2,1,1,0,0,0-1-.4,1.85,1.85,0,0,0-.7.2c-.2.1-.3.3-.5.5l-.3.6a1.27,1.27,0,0,0-.1.6l-3-.5a4.8,4.8,0,0,1,.5-1.7,4.19,4.19,0,0,1,.9-1.4,4.48,4.48,0,0,1,3.4-1.4,4,4,0,0,1,4.4,3.8v.7a3,3,0,0,1-.2,1.3c-.1.4-.3.7-.4,1.1a5.5,5.5,0,0,1-.7.9,6.47,6.47,0,0,1-.9.8,3.92,3.92,0,0,0-.8,1,3.55,3.55,0,0,0-.2,1Zm.6,3.6a2.69,2.69,0,0,1-.5,1.5,1.93,1.93,0,0,1-2.8,0h0a1.65,1.65,0,0,1-.5-1.5,2.69,2.69,0,0,1,.5-1.5,1.9,1.9,0,0,1,2.7-.1l.1.1A2.46,2.46,0,0,1,370.2,44.1Z"/></g></g></svg>