<svg xmlns="http://www.w3.org/2000/svg" viewBox="0 0 67.09 60.06"><defs><style>.cls-1{fill:#27b14b;}</style></defs><title>manicon</title><g id="Layer_2" data-name="Layer 2"><g id="Layer_1-2" data-name="Layer 1"><path class="cls-1" d="M.7,60a.94.94,0,0,0,1.15-.66c1.93-7.21,9.79-9.08,14.49-10.2A18.91,18.91,0,0,0,19,48.4c5.35-2.32,7.09-6.06,7.62-8.78a.94.94,0,0,0-.31-.89,24.32,24.32,0,0,1-6.62-10.17.92.92,0,0,0-.19-.32c-2-2.13-3.09-4.39-3.09-6.18a2.42,2.42,0,0,1,1.29-2.28.94.94,0,0,0,.46-.77c.41-9.56,7.23-17.09,15.58-17.14H34c8.39.12,15.16,7.81,15.4,17.5a.93.93,0,0,0,.33.69,2.41,2.41,0,0,1,.86,2,9.07,9.07,0,0,1-2.25,5.2,1,1,0,0,0-.16.3A24.43,24.43,0,0,1,40.77,39.1a.94.94,0,0,0-.33.91C41,42.73,42.7,46.46,48,48.79a17.63,17.63,0,0,0,2.86.76c4.65,1,12.43,2.69,14.34,9.82a.94.94,0,0,0,.9.69,1,1,0,0,0,.24,0,.94.94,0,0,0,.66-1.15c-2.21-8.24-11-10.14-15.75-11.17a17.44,17.44,0,0,1-2.51-.65c-3.49-1.52-5.64-3.83-6.4-6.88a26.64,26.64,0,0,0,7.5-11.9,10.76,10.76,0,0,0,2.55-6.23,4.29,4.29,0,0,0-1.21-3.12C50.8,8.42,43.29.14,34,0h-.28C24.55,0,17,8.11,16.35,18.45a4.24,4.24,0,0,0-1.77,3.61c0,2.22,1.26,4.88,3.45,7.31a26.47,26.47,0,0,0,6.68,10.41c-.76,3.06-2.91,5.38-6.41,6.9a18.47,18.47,0,0,1-2.4.66C11.13,48.48,2.25,50.59,0,58.88A.94.94,0,0,0,.7,60Z"/></g></g></svg>