<svg xmlns="http://www.w3.org/2000/svg" viewBox="0 0 64.35 50.23"><defs><style>.cls-1{fill:#f36c24;}</style></defs><title>mapicon</title><g id="Layer_2" data-name="Layer 2"><g id="Layer_1-2" data-name="Layer 1"><path class="cls-1" d="M14.5,50.11h0a.8.8,0,0,0,.36.1l.21,0,17.06-4.66L49.23,50.2l.21,0a.77.77,0,0,0,.36-.1h0L64,41.48a.79.79,0,0,0,.35-.88L56.5,13.13a.78.78,0,0,0-.46-.51.8.8,0,0,0-.68,0L47.57,17a.79.79,0,1,0,.77,1.37l6.92-3.88,7.39,25.94L50.07,48.14l-3-23.91a.79.79,0,0,0-.88-.68.79.79,0,0,0-.68.88l3,24L33,44.13V39.85a.78.78,0,0,0-1.57,0v4.28L15.83,48.38l3-24a.79.79,0,0,0-1.56-.19l-3,23.91L1.7,40.45,9.09,14.51,16,18.4A.79.79,0,1,0,16.78,17L9,12.66a.78.78,0,0,0-1.14.47L0,40.6a.78.78,0,0,0,.35.88ZM31.64,36.68a.79.79,0,0,0,1.06,0c.52-.48,12.81-11.75,12.81-23.34a13.34,13.34,0,0,0-26.68,0C18.83,24.73,31.12,36.19,31.64,36.68Zm.53-35.11A11.51,11.51,0,0,1,43.95,13.34c0,9.57-9.41,19.36-11.77,21.67C29.82,32.68,20.4,22.76,20.4,13.34A11.51,11.51,0,0,1,32.18,1.57Zm7.06,11.77a7.06,7.06,0,1,0-7.06,7.06A7.07,7.07,0,0,0,39.24,13.34Zm-7.06,5.49a5.49,5.49,0,1,1,5.49-5.49A5.5,5.5,0,0,1,32.18,18.84Z"/></g></g></svg>