<svg xmlns="http://www.w3.org/2000/svg" xmlns:xlink="http://www.w3.org/1999/xlink" version="1.1" id="Layer_1" x="0" y="0" viewBox="0 0 400 80" xml:space="preserve" enable-background="new 0 0 400 80"><rect x="0.1" y="0" width="400" height="80" fill="#3A225F"/><path d="M96.2 35.5c-0.4-0.3-0.9-0.2-1.2 0.1L91.3 40c-0.1 0-0.2-0.1-0.3 0h-2.2l2.8-3.4c0.3-0.4 0.2-0.9-0.1-1.2 -0.4-0.3-0.9-0.2-1.2 0.1L86.7 40h-2.5l2.8-3.4c0.3-0.4 0.2-0.9-0.1-1.2 -0.4-0.3-0.9-0.2-1.2 0.1L82.1 40h-1.2c0-13.8-11.2-25-25-25 -13.8 0-25 11.2-25 25s11.2 25 25 25C69.2 65 80 54.7 80.8 41.6h1.3l3.7 4.4c0.2 0.2 0.4 0.3 0.6 0.3 0.2 0 0.4-0.1 0.5-0.2 0.4-0.3 0.4-0.8 0.1-1.2l-2.8-3.4h2.5l3.7 4.4c0.2 0.2 0.4 0.3 0.6 0.3 0.2 0 0.4-0.1 0.5-0.2 0.4-0.3 0.4-0.8 0.1-1.2l-2.8-3.4h2.2c0.1 0.1 0.2 0 0.3 0L95 46c0.2 0.2 0.4 0.3 0.6 0.3 0.2 0 0.4-0.1 0.5-0.2 0.4-0.3 0.4-0.8 0.1-1.2l-3.5-4.2 3.5-4.2C96.6 36.3 96.6 35.7 96.2 35.5zM55.9 63.4C43 63.4 32.5 52.9 32.5 40S43 16.6 55.9 16.6C68.8 16.6 79.3 27 79.4 40h-4.7c0-10.4-8.4-18.8-18.8-18.8 -10.3 0-18.8 8.4-18.8 18.8s8.4 18.8 18.8 18.8c9.8 0 17.9-7.6 18.7-17.2h4.7C78.4 53.8 68.3 63.4 55.9 63.4zM68.4 40c0-6.9-5.6-12.5-12.5-12.5 -6.9 0-12.5 5.6-12.5 12.5S49 52.5 55.9 52.5c6.3 0 11.6-4.8 12.4-10.9H73c-0.8 8.8-8.2 15.6-17.1 15.6 -9.5 0-17.2-7.7-17.2-17.2s7.7-17.2 17.2-17.2c9.5 0 17.2 7.7 17.2 17.2H68.4zM62.2 40c0-3.5-2.8-6.3-6.2-6.3 -3.4 0-6.3 2.8-6.3 6.3s2.8 6.3 6.3 6.3c2.9 0 5.3-2 6-4.7h4.8c-0.8 5.3-5.3 9.4-10.8 9.4C49.9 50.9 45 46 45 40s4.9-10.9 10.9-10.9c6 0 10.9 4.9 10.9 10.9H62.2zM56.7 41.6h3.6c-0.7 1.8-2.4 3.1-4.4 3.1 -2.6 0-4.7-2.1-4.7-4.7s2.1-4.7 4.7-4.7c2.6 0 4.7 2.1 4.7 4.7h-3.9c-0.5-0.1-0.8 0.3-0.8 0.8C55.9 41.2 56.2 41.6 56.7 41.6z" fill="#FBE700"/><path d="M144.5 45.9h-3.9l-2-10.9h0l-2 10.9h-3.9l-3.1-16.3h3.7L135 41h0.1l1.8-11.3h3.6l1.8 11.3h0.1l1.7-11.3h3.6L144.5 45.9z" fill="#FBE700"/><path d="M152.7 45.9h-3.6V28.6h3.6v7h0.1c0.2-0.5 0.5-1 1-1.4 0.5-0.4 1.1-0.6 1.8-0.6 0.7 0 1.2 0.1 1.7 0.4 0.4 0.3 0.7 0.7 1 1.1 0.2 0.5 0.4 1 0.5 1.6 0.1 0.6 0.1 1.2 0.1 1.9v7.4h-3.6v-7.4c0-0.5-0.1-0.9-0.2-1.3s-0.4-0.6-0.9-0.6 -0.8 0.2-1 0.6 -0.4 0.9-0.4 1.6V45.9z" fill="#FBE700"/><path d="M166.5 44.4c-0.2 0.5-0.5 1-0.9 1.3 -0.5 0.3-1 0.5-1.8 0.5 -0.4 0-0.7-0.1-1.1-0.2 -0.4-0.1-0.7-0.3-1-0.6 -0.3-0.3-0.6-0.7-0.8-1.1 -0.2-0.5-0.3-1-0.3-1.7 0-0.8 0.1-1.5 0.4-2 0.3-0.5 0.7-1 1.2-1.3 0.5-0.3 1-0.5 1.6-0.7 0.6-0.1 1.2-0.2 1.9-0.2h0.5v-0.2c0-0.6-0.1-1-0.4-1.3 -0.3-0.3-0.6-0.4-1.1-0.4 -0.4 0-0.8 0.1-1.2 0.3s-0.7 0.5-0.9 0.8l-1.6-2.2c0.5-0.6 1.1-1 1.8-1.4 0.7-0.3 1.5-0.5 2.2-0.5 0.8 0 1.5 0.1 2.1 0.4 0.6 0.2 1 0.6 1.4 1.1 0.4 0.5 0.6 1.1 0.8 1.7s0.2 1.5 0.2 2.4v6.8h-3L166.5 44.4 166.5 44.4zM166.4 40.7h-0.6c-0.3 0-0.5 0-0.8 0.1 -0.2 0-0.5 0.1-0.6 0.3 -0.2 0.1-0.3 0.3-0.4 0.5s-0.2 0.5-0.2 0.8c0 0.5 0.1 0.8 0.3 1 0.2 0.2 0.5 0.3 0.7 0.3 0.3 0 0.5-0.1 0.7-0.2 0.2-0.1 0.4-0.3 0.5-0.5 0.1-0.2 0.2-0.5 0.3-0.8 0.1-0.3 0.1-0.6 0.1-0.8V40.7z" fill="#FBE700"/><path d="M176.7 46.1c-0.4 0.1-0.7 0.1-1.1 0.1 -1.2 0-2.1-0.3-2.6-1 -0.6-0.7-0.8-1.6-0.8-2.9v-5.6h-1.4v-2.8h1.4V31h3.5v2.9h2.1v2.8h-2.1v4.8c0 0.6 0.1 1 0.3 1.3 0.2 0.3 0.5 0.4 0.9 0.4 0.3 0 0.6-0.1 0.8-0.2v2.8C177.4 45.9 177.1 46 176.7 46.1z" fill="#FBE700"/><path d="M180.2 29.7h2.7l-1.4 5.9h-2.4L180.2 29.7z" fill="#FBE700"/><path d="M189.8 37.3c-0.3-0.3-0.6-0.5-0.9-0.7 -0.3-0.2-0.7-0.3-1.1-0.3 -0.3 0-0.5 0.1-0.7 0.3 -0.2 0.2-0.3 0.4-0.3 0.8 0 0.3 0.1 0.5 0.3 0.7 0.2 0.1 0.6 0.3 1.3 0.5 0.4 0.1 0.7 0.3 1.1 0.4s0.7 0.4 0.9 0.7c0.3 0.3 0.5 0.6 0.7 1 0.2 0.4 0.3 0.9 0.3 1.4 0 0.7-0.1 1.4-0.4 1.9 -0.3 0.5-0.6 0.9-1 1.3 -0.4 0.3-0.8 0.6-1.3 0.7 -0.5 0.2-1 0.2-1.4 0.2 -0.8 0-1.6-0.1-2.3-0.4 -0.7-0.3-1.4-0.7-1.9-1.2l1.8-2.3c0.3 0.3 0.7 0.6 1 0.8 0.4 0.2 0.8 0.3 1.2 0.3 0.3 0 0.6-0.1 0.8-0.3s0.3-0.5 0.3-0.8c0-0.4-0.2-0.7-0.5-0.8s-0.8-0.4-1.4-0.6c-0.3-0.1-0.6-0.2-1-0.4 -0.3-0.2-0.6-0.4-0.9-0.7 -0.3-0.3-0.5-0.6-0.6-1 -0.2-0.4-0.2-0.9-0.2-1.4 0-0.7 0.1-1.3 0.4-1.8 0.2-0.5 0.6-0.9 1-1.2s0.8-0.6 1.3-0.7c0.5-0.2 1-0.2 1.5-0.2 0.7 0 1.4 0.1 2.1 0.4 0.7 0.3 1.3 0.6 1.8 1.1L189.8 37.3z" fill="#FBE700"/><path d="M204 46.3c-0.2 0.7-0.4 1.3-0.6 2 -0.2 0.6-0.5 1.2-0.9 1.6 -0.4 0.5-0.8 0.8-1.4 1.1s-1.2 0.4-2 0.4c-0.4 0-0.7 0-1.1-0.1 -0.4 0-0.7-0.1-1-0.2l0.5-3.3c0.1 0.1 0.3 0.1 0.5 0.1 0.2 0 0.3 0 0.5 0 0.5 0 0.8-0.1 1-0.4 0.2-0.2 0.4-0.5 0.4-0.9l0.2-0.7 -3.6-12.3h3.8l1.7 8h0l1.6-8h3.7L204 46.3z" fill="#FBE700"/><path d="M218.2 39.9c0 0.9-0.1 1.8-0.3 2.6s-0.6 1.5-1 2c-0.4 0.6-0.9 1-1.6 1.3 -0.6 0.3-1.3 0.5-2.1 0.5 -0.8 0-1.5-0.2-2.1-0.5 -0.6-0.3-1.1-0.8-1.6-1.3 -0.4-0.6-0.8-1.2-1-2 -0.2-0.8-0.3-1.7-0.3-2.6 0-0.9 0.1-1.8 0.3-2.6 0.2-0.8 0.6-1.5 1-2 0.4-0.6 1-1 1.6-1.3 0.6-0.3 1.3-0.5 2.1-0.5 0.8 0 1.5 0.2 2.1 0.5 0.6 0.3 1.1 0.8 1.6 1.3 0.4 0.6 0.7 1.2 1 2C218.1 38.1 218.2 39 218.2 39.9zM214.7 39.9c0-0.5 0-0.9-0.1-1.3 -0.1-0.4-0.2-0.7-0.3-1 -0.1-0.3-0.3-0.5-0.5-0.7 -0.2-0.2-0.4-0.3-0.7-0.3 -0.3 0-0.5 0.1-0.7 0.3 -0.2 0.2-0.3 0.4-0.5 0.7 -0.1 0.3-0.2 0.6-0.3 1 -0.1 0.4-0.1 0.8-0.1 1.3 0 0.5 0 0.9 0.1 1.3 0.1 0.4 0.2 0.7 0.3 1 0.1 0.3 0.3 0.5 0.5 0.7 0.2 0.2 0.4 0.3 0.7 0.3 0.3 0 0.5-0.1 0.7-0.3 0.2-0.2 0.3-0.4 0.5-0.7 0.1-0.3 0.2-0.6 0.3-1C214.7 40.8 214.7 40.4 214.7 39.9z" fill="#FBE700"/><path d="M226.3 45.9v-1.7h0c-0.2 0.6-0.6 1.1-1.1 1.5s-1.1 0.6-1.9 0.6c-0.7 0-1.2-0.1-1.7-0.4 -0.4-0.3-0.7-0.7-1-1.1 -0.2-0.5-0.4-1-0.5-1.6 -0.1-0.6-0.1-1.2-0.1-1.9v-7.4h3.6v7.4c0 0.3 0 0.5 0 0.7 0 0.2 0.1 0.4 0.2 0.6 0.1 0.2 0.2 0.3 0.3 0.4 0.1 0.1 0.3 0.2 0.5 0.2 0.4 0 0.8-0.2 1-0.6s0.4-0.9 0.4-1.6v-7.1h3.6v12H226.3z" fill="#FBE700"/><path d="M232.7 33.9h3.5v2h0c0.4-1.6 1.2-2.4 2.4-2.4 0.1 0 0.2 0 0.3 0 0.1 0 0.2 0 0.3 0.1l-0.2 3.6c-0.1 0-0.2-0.1-0.4-0.1 -0.1 0-0.3 0-0.4 0 -0.3 0-0.6 0.1-0.8 0.2s-0.4 0.4-0.6 0.6c-0.2 0.3-0.3 0.6-0.4 0.9 -0.1 0.4-0.1 0.7-0.1 1.1v6h-3.6V33.9z" fill="#FBE700"/><path d="M248.9 33v3.3h3.9v3.1H249v6.5h-3.7V29.7h7.9V33H248.9z" fill="#FBE700"/><path d="M254.6 33.9h3.5v2h0c0.4-1.6 1.2-2.4 2.4-2.4 0.1 0 0.2 0 0.3 0 0.1 0 0.2 0 0.3 0.1l-0.2 3.6c-0.1 0-0.2-0.1-0.4-0.1 -0.1 0-0.3 0-0.4 0 -0.3 0-0.6 0.1-0.8 0.2 -0.2 0.2-0.4 0.4-0.6 0.6 -0.2 0.3-0.3 0.6-0.4 0.9 -0.1 0.4-0.1 0.7-0.1 1.1v6h-3.6V33.9z" fill="#FBE700"/><path d="M265.1 40.8c0 0.3 0 0.7 0.1 1s0.2 0.6 0.3 0.8c0.1 0.2 0.3 0.4 0.5 0.5s0.4 0.2 0.7 0.2c0.4 0 0.7-0.1 1-0.4 0.2-0.3 0.4-0.6 0.6-0.9l2.6 1.5c-0.4 0.9-1 1.6-1.7 2.1 -0.7 0.5-1.6 0.8-2.7 0.8 -0.7 0-1.4-0.1-2-0.4 -0.6-0.3-1.1-0.7-1.6-1.2 -0.5-0.5-0.8-1.2-1.1-2 -0.3-0.8-0.4-1.7-0.4-2.8 0-1 0.1-1.9 0.4-2.7 0.2-0.8 0.6-1.5 1-2 0.4-0.6 1-1 1.6-1.3 0.6-0.3 1.3-0.5 2-0.5 0.8 0 1.5 0.2 2.1 0.5 0.6 0.3 1.1 0.8 1.4 1.3 0.4 0.6 0.6 1.2 0.8 2 0.2 0.8 0.3 1.6 0.3 2.5v1H265.1zM267.8 38.5c0-0.6-0.1-1.2-0.3-1.6s-0.5-0.6-1-0.6c-0.2 0-0.5 0.1-0.6 0.2 -0.2 0.1-0.3 0.3-0.4 0.6 -0.1 0.2-0.2 0.5-0.3 0.7 -0.1 0.3-0.1 0.5-0.1 0.7H267.8z" fill="#FBE700"/><path d="M276 40.8c0 0.3 0 0.7 0.1 1s0.2 0.6 0.3 0.8c0.1 0.2 0.3 0.4 0.5 0.5s0.4 0.2 0.7 0.2c0.4 0 0.7-0.1 1-0.4 0.2-0.3 0.4-0.6 0.6-0.9l2.6 1.5c-0.4 0.9-1 1.6-1.7 2.1 -0.7 0.5-1.6 0.8-2.7 0.8 -0.7 0-1.4-0.1-2-0.4 -0.6-0.3-1.1-0.7-1.6-1.2 -0.5-0.5-0.8-1.2-1.1-2 -0.3-0.8-0.4-1.7-0.4-2.8 0-1 0.1-1.9 0.4-2.7 0.2-0.8 0.6-1.5 1-2 0.4-0.6 1-1 1.6-1.3 0.6-0.3 1.3-0.5 2-0.5 0.8 0 1.5 0.2 2.1 0.5 0.6 0.3 1.1 0.8 1.4 1.3 0.4 0.6 0.6 1.2 0.8 2 0.2 0.8 0.3 1.6 0.3 2.5v1H276zM278.7 38.5c0-0.6-0.1-1.2-0.3-1.6s-0.5-0.6-1-0.6c-0.2 0-0.5 0.1-0.6 0.2 -0.2 0.1-0.3 0.3-0.4 0.6 -0.1 0.2-0.2 0.5-0.3 0.7 -0.1 0.3-0.1 0.5-0.1 0.7H278.7z" fill="#FBE700"/><path d="M289.9 45.9v-1.4h0c-0.2 0.5-0.4 0.9-0.8 1.3 -0.4 0.4-1 0.5-1.7 0.5 -0.6 0-1.2-0.2-1.7-0.5s-0.9-0.8-1.3-1.4 -0.6-1.3-0.8-2.1c-0.2-0.8-0.3-1.6-0.3-2.6 0-0.9 0.1-1.7 0.3-2.5 0.2-0.8 0.4-1.4 0.8-2 0.3-0.6 0.8-1 1.3-1.3 0.5-0.3 1.1-0.5 1.7-0.5 0.6 0 1.1 0.2 1.6 0.5 0.4 0.3 0.7 0.7 0.9 1.1h0.1v-6.6h3.6v17.4H289.9zM290 39.9c0-0.5 0-0.9-0.1-1.3 -0.1-0.4-0.2-0.7-0.3-1 -0.1-0.3-0.3-0.5-0.5-0.7 -0.2-0.2-0.4-0.3-0.7-0.3 -0.3 0-0.5 0.1-0.7 0.3 -0.2 0.2-0.3 0.4-0.5 0.7 -0.1 0.3-0.2 0.6-0.3 1 -0.1 0.4-0.1 0.8-0.1 1.3 0 0.4 0 0.9 0.1 1.3 0.1 0.4 0.2 0.7 0.3 1 0.1 0.3 0.3 0.5 0.5 0.7 0.2 0.2 0.4 0.3 0.7 0.3 0.3 0 0.5-0.1 0.7-0.3 0.2-0.2 0.4-0.4 0.5-0.7 0.1-0.3 0.2-0.6 0.3-1C289.9 40.8 290 40.4 290 39.9z" fill="#FBE700"/><path d="M305.5 39.9c0 0.9-0.1 1.8-0.3 2.6s-0.6 1.5-1 2c-0.4 0.6-0.9 1-1.6 1.3 -0.6 0.3-1.3 0.5-2.1 0.5s-1.5-0.2-2.1-0.5c-0.6-0.3-1.1-0.8-1.6-1.3 -0.4-0.6-0.8-1.2-1-2s-0.3-1.7-0.3-2.6c0-0.9 0.1-1.8 0.3-2.6 0.2-0.8 0.6-1.5 1-2 0.4-0.6 1-1 1.6-1.3 0.6-0.3 1.3-0.5 2.1-0.5s1.5 0.2 2.1 0.5c0.6 0.3 1.1 0.8 1.6 1.3 0.4 0.6 0.7 1.2 1 2C305.4 38.1 305.5 39 305.5 39.9zM302 39.9c0-0.5 0-0.9-0.1-1.3s-0.2-0.7-0.3-1c-0.1-0.3-0.3-0.5-0.5-0.7 -0.2-0.2-0.4-0.3-0.7-0.3 -0.3 0-0.5 0.1-0.7 0.3 -0.2 0.2-0.3 0.4-0.5 0.7s-0.2 0.6-0.3 1c-0.1 0.4-0.1 0.8-0.1 1.3 0 0.5 0 0.9 0.1 1.3 0.1 0.4 0.2 0.7 0.3 1s0.3 0.5 0.5 0.7c0.2 0.2 0.4 0.3 0.7 0.3 0.3 0 0.5-0.1 0.7-0.3 0.2-0.2 0.3-0.4 0.5-0.7 0.1-0.3 0.2-0.6 0.3-1S302 40.4 302 39.9z" fill="#FBE700"/><path d="M311.1 33.9v1.7h0c0.2-0.6 0.5-1.1 1-1.5 0.5-0.4 1.1-0.6 1.9-0.6 0.9 0 1.5 0.2 1.9 0.6 0.4 0.4 0.7 0.9 0.9 1.5h0c0.1-0.3 0.2-0.5 0.4-0.8 0.2-0.3 0.4-0.5 0.6-0.7 0.3-0.2 0.5-0.4 0.9-0.5 0.3-0.1 0.7-0.2 1.1-0.2 0.7 0 1.2 0.1 1.7 0.4 0.4 0.3 0.8 0.7 1 1.1 0.2 0.5 0.4 1 0.5 1.6 0.1 0.6 0.1 1.2 0.1 1.9v7.4h-3.6v-7.4c0-0.5-0.1-0.9-0.2-1.3s-0.4-0.6-0.9-0.6c-0.4 0-0.8 0.2-1 0.6s-0.4 0.9-0.4 1.6v7.1h-3.5v-7.4c0-0.5-0.1-0.9-0.2-1.3s-0.4-0.6-0.9-0.6c-0.4 0-0.8 0.2-1 0.6 -0.2 0.4-0.4 0.9-0.4 1.6v7.1h-3.5v-12H311.1z" fill="#FBE700"/><path d="M339 45.9c-0.7 0.2-1.6 0.4-2.6 0.4 -1 0-1.9-0.2-2.7-0.6 -0.8-0.4-1.5-1-2-1.7 -0.6-0.7-1-1.6-1.3-2.7 -0.3-1-0.4-2.2-0.4-3.5s0.1-2.4 0.4-3.5c0.3-1 0.7-2 1.3-2.7 0.6-0.8 1.2-1.3 2-1.8 0.8-0.4 1.6-0.6 2.6-0.6 1.1 0 2 0.2 2.8 0.6 0.7 0.4 1.3 0.8 1.8 1.4l-2 2.7c-0.6-0.8-1.3-1.1-2.3-1.1 -0.5 0-0.9 0.1-1.3 0.4 -0.4 0.3-0.7 0.6-0.9 1.1 -0.2 0.5-0.4 1-0.5 1.6 -0.1 0.6-0.2 1.3-0.2 2s0.1 1.3 0.2 2c0.1 0.6 0.3 1.1 0.5 1.6 0.2 0.5 0.5 0.8 0.9 1.1 0.4 0.3 0.8 0.4 1.3 0.4 0.6 0 1-0.1 1.3-0.3v-3h-1.7v-3.2h5V45C340.3 45.4 339.7 45.7 339 45.9z" fill="#FBE700"/><path d="M352.6 39.9c0 0.9-0.1 1.8-0.3 2.6s-0.6 1.5-1 2c-0.4 0.6-0.9 1-1.6 1.3 -0.6 0.3-1.3 0.5-2.1 0.5s-1.5-0.2-2.1-0.5c-0.6-0.3-1.1-0.8-1.6-1.3 -0.4-0.6-0.8-1.2-1-2s-0.3-1.7-0.3-2.6c0-0.9 0.1-1.8 0.3-2.6 0.2-0.8 0.6-1.5 1-2 0.4-0.6 1-1 1.6-1.3 0.6-0.3 1.3-0.5 2.1-0.5s1.5 0.2 2.1 0.5c0.6 0.3 1.1 0.8 1.6 1.3 0.4 0.6 0.7 1.2 1 2C352.5 38.1 352.6 39 352.6 39.9zM349.2 39.9c0-0.5 0-0.9-0.1-1.3s-0.2-0.7-0.3-1c-0.1-0.3-0.3-0.5-0.5-0.7 -0.2-0.2-0.4-0.3-0.7-0.3 -0.3 0-0.5 0.1-0.7 0.3 -0.2 0.2-0.3 0.4-0.5 0.7s-0.2 0.6-0.3 1c-0.1 0.4-0.1 0.8-0.1 1.3 0 0.5 0 0.9 0.1 1.3 0.1 0.4 0.2 0.7 0.3 1s0.3 0.5 0.5 0.7c0.2 0.2 0.4 0.3 0.7 0.3 0.3 0 0.5-0.1 0.7-0.3 0.2-0.2 0.3-0.4 0.5-0.7 0.1-0.3 0.2-0.6 0.3-1S349.2 40.4 349.2 39.9z" fill="#FBE700"/><path d="M359.7 44.4c-0.2 0.5-0.5 1-0.9 1.3 -0.5 0.3-1 0.5-1.8 0.5 -0.4 0-0.7-0.1-1.1-0.2 -0.4-0.1-0.7-0.3-1-0.6 -0.3-0.3-0.6-0.7-0.8-1.1 -0.2-0.5-0.3-1-0.3-1.7 0-0.8 0.1-1.5 0.4-2s0.7-1 1.2-1.3c0.5-0.3 1-0.5 1.6-0.7 0.6-0.1 1.2-0.2 1.9-0.2h0.5v-0.2c0-0.6-0.1-1-0.4-1.3 -0.3-0.3-0.6-0.4-1.1-0.4s-0.8 0.1-1.2 0.3c-0.4 0.2-0.7 0.5-0.9 0.8l-1.6-2.2c0.5-0.6 1.1-1 1.8-1.4 0.7-0.3 1.5-0.5 2.2-0.5 0.8 0 1.5 0.1 2.1 0.4s1 0.6 1.4 1.1c0.4 0.5 0.6 1.1 0.8 1.7 0.2 0.7 0.2 1.5 0.2 2.4v6.8h-3L359.7 44.4 359.7 44.4zM359.6 40.7H359c-0.3 0-0.5 0-0.8 0.1 -0.2 0-0.5 0.1-0.6 0.3 -0.2 0.1-0.3 0.3-0.4 0.5S357 42 357 42.3c0 0.5 0.1 0.8 0.3 1 0.2 0.2 0.5 0.3 0.7 0.3 0.3 0 0.5-0.1 0.7-0.2 0.2-0.1 0.4-0.3 0.5-0.5 0.1-0.2 0.2-0.5 0.3-0.8 0.1-0.3 0.1-0.6 0.1-0.8V40.7z" fill="#FBE700"/><path d="M365.4 45.9V28.6h3.7v17.4H365.4z" fill="#FBE700"/><path d="M377 40.5h-3v-1c0-0.8 0.1-1.5 0.4-2 0.3-0.5 0.7-1 1.2-1.5l0.4-0.4c0.2-0.2 0.4-0.5 0.6-0.7s0.2-0.5 0.2-0.9c0-0.5-0.1-0.9-0.3-1.2 -0.2-0.3-0.5-0.4-1-0.4 -0.3 0-0.5 0.1-0.7 0.2 -0.2 0.1-0.3 0.3-0.4 0.5 -0.1 0.2-0.2 0.4-0.3 0.6s-0.1 0.4-0.1 0.6l-3-0.5c0.1-0.6 0.2-1.2 0.4-1.7 0.2-0.5 0.5-1 0.9-1.4 0.4-0.4 0.9-0.7 1.4-1 0.6-0.2 1.2-0.4 2-0.4 1.3 0 2.4 0.4 3.2 1.2 0.8 0.8 1.2 1.9 1.2 3.3 0 0.5-0.1 0.9-0.2 1.3s-0.3 0.7-0.4 1.1c-0.2 0.3-0.4 0.6-0.7 0.9 -0.3 0.3-0.6 0.6-0.9 0.8 -0.4 0.4-0.7 0.7-0.8 1 -0.1 0.3-0.2 0.6-0.2 1V40.5zM377.6 44.1c0 0.6-0.2 1.1-0.5 1.5 -0.4 0.4-0.8 0.6-1.4 0.6s-1.1-0.2-1.4-0.6 -0.5-0.9-0.5-1.5c0-0.6 0.2-1.1 0.5-1.5s0.8-0.6 1.4-0.6 1.1 0.2 1.4 0.6C377.4 43 377.6 43.5 377.6 44.1z" fill="#FBE700"/></svg>