<svg xmlns="http://www.w3.org/2000/svg" viewBox="0 0 400 80"><defs><style>.cls-1{fill:#3a225f;}.cls-2{fill:#fce800;}</style></defs><title>Goal</title><g id="Layer_2" data-name="Layer 2"><g id="Layer_1-2" data-name="Layer 1"><rect class="cls-1" width="400" height="80"/><path class="cls-2" d="M96.06,35.45a.83.83,0,0,0-1.18.11L91.19,40a.28.28,0,0,0-.25,0H88.76l2.77-3.37a.83.83,0,0,0-1.28-1.07L86.59,40H84.12l2.77-3.37a.83.83,0,0,0-1.28-1.07L81.95,40H80.77a25.5,25.5,0,1,0-.08,1.56H82L85.61,46a.83.83,0,0,0,1.28-1.07l-2.77-3.37h2.47L90.25,46a.83.83,0,0,0,1.28-1.07l-2.77-3.37h2.17a.28.28,0,0,0,.25,0L94.89,46a.83.83,0,0,0,1.28-1.07l-3.46-4.15,3.46-4.15A.83.83,0,0,0,96.06,35.45Zm-40.29,28A23.44,23.44,0,1,1,79.21,40H74.52a18.92,18.92,0,1,0-.08,1.56h4.69A23.46,23.46,0,0,1,55.77,63.44ZM68.27,40a12.64,12.64,0,1,0-.11,1.56h4.72A17.1,17.1,0,1,1,73,40ZM62,40a6.42,6.42,0,1,0-.23,1.56h4.8A10.83,10.83,0,1,1,66.71,40Zm-5.47,1.56h3.6a4.61,4.61,0,1,1,.3-1.56h-3.9a.78.78,0,1,0,0,1.56Z"/><path class="cls-2" d="M144.33,45.93h-3.91l-2-10.92h0l-2,10.92h-3.91l-3.06-16.27h3.75L134.86,41H135l1.77-11.33h3.56L142.12,41h.07l1.66-11.33h3.56Z"/><path class="cls-2" d="M152.58,45.93H149V28.56h3.61v7h.07a3.27,3.27,0,0,1,1-1.42,2.71,2.71,0,0,1,1.83-.62,2.94,2.94,0,0,1,1.67.42,2.84,2.84,0,0,1,1,1.14,5.21,5.21,0,0,1,.46,1.63,15.28,15.28,0,0,1,.12,1.91v7.35h-3.61V38.55a3.74,3.74,0,0,0-.22-1.33.86.86,0,0,0-.88-.58,1.15,1.15,0,0,0-1,.61,3.06,3.06,0,0,0-.37,1.6Z"/><path class="cls-2" d="M166.37,44.43a2.37,2.37,0,0,1-.91,1.3,2.91,2.91,0,0,1-1.76.49,3.42,3.42,0,0,1-1.08-.18,2.77,2.77,0,0,1-1-.61,3.22,3.22,0,0,1-.76-1.13,4.43,4.43,0,0,1-.3-1.74,4.18,4.18,0,0,1,.45-2,3.66,3.66,0,0,1,1.17-1.29,4.7,4.7,0,0,1,1.64-.68,9,9,0,0,1,1.86-.2h.46v-.18a1.7,1.7,0,0,0-.4-1.26,1.47,1.47,0,0,0-1.07-.39,2.45,2.45,0,0,0-1.21.3,3.33,3.33,0,0,0-.93.76l-1.58-2.21A5,5,0,0,1,162.77,34a5.32,5.32,0,0,1,2.17-.48,5.21,5.21,0,0,1,2.07.37A3.33,3.33,0,0,1,168.39,35a4.57,4.57,0,0,1,.76,1.74,10.8,10.8,0,0,1,.23,2.36v6.85h-3V44.43Zm-.12-3.75h-.64a4.11,4.11,0,0,0-.76.07,1.63,1.63,0,0,0-.64.26,1.41,1.41,0,0,0-.44.51,1.71,1.71,0,0,0-.16.79,1.49,1.49,0,0,0,.31,1,1,1,0,0,0,.75.33,1.28,1.28,0,0,0,.72-.21,1.54,1.54,0,0,0,.49-.54,2.8,2.8,0,0,0,.28-.76,3.94,3.94,0,0,0,.09-.84Z"/><path class="cls-2" d="M176.57,46.11a5.35,5.35,0,0,1-1.1.12,3.28,3.28,0,0,1-2.64-1,4.44,4.44,0,0,1-.83-2.93V36.71h-1.45v-2.8H172V31h3.49v2.9h2.07v2.8h-2.07v4.8a2.32,2.32,0,0,0,.28,1.28,1,1,0,0,0,.87.4,1.61,1.61,0,0,0,.8-.18v2.83A3.26,3.26,0,0,1,176.57,46.11Z"/><path class="cls-2" d="M180.06,29.66h2.69l-1.45,5.93h-2.39Z"/><path class="cls-2" d="M189.69,37.29a3.71,3.71,0,0,0-.9-.67,2.24,2.24,0,0,0-1.06-.25,1.09,1.09,0,0,0-.75.28,1,1,0,0,0-.31.76.75.75,0,0,0,.33.68,5.38,5.38,0,0,0,1.25.49,6.2,6.2,0,0,1,1.06.44,3.51,3.51,0,0,1,1.62,1.76,3.6,3.6,0,0,1,.26,1.44,4.18,4.18,0,0,1-.39,1.88,3.75,3.75,0,0,1-1,1.26,4,4,0,0,1-1.34.71,4.88,4.88,0,0,1-1.44.23,6.28,6.28,0,0,1-2.31-.44,5.68,5.68,0,0,1-1.92-1.22l1.79-2.3a4.61,4.61,0,0,0,1,.83,2.43,2.43,0,0,0,1.23.32,1,1,0,0,0,.79-.3,1.08,1.08,0,0,0,.29-.78.9.9,0,0,0-.46-.84,7.71,7.71,0,0,0-1.38-.56,7.36,7.36,0,0,1-1-.4,3,3,0,0,1-.86-.66,3.36,3.36,0,0,1-.62-1,3.79,3.79,0,0,1-.24-1.44,3.94,3.94,0,0,1,.37-1.76,3.78,3.78,0,0,1,1-1.24,4,4,0,0,1,1.31-.74,4.58,4.58,0,0,1,1.46-.24,5.81,5.81,0,0,1,2.11.39A5.89,5.89,0,0,1,191.44,35Z"/><path class="cls-2" d="M203.89,46.34a18.85,18.85,0,0,1-.63,2,6.28,6.28,0,0,1-.91,1.62A4.08,4.08,0,0,1,201,51a4.29,4.29,0,0,1-2,.41,8.43,8.43,0,0,1-1.07-.07q-.54-.07-1-.16l.48-3.26a2.06,2.06,0,0,0,.48.14,3,3,0,0,0,.48,0,1.24,1.24,0,0,0,1-.37,2.26,2.26,0,0,0,.45-.87l.18-.67-3.58-12.32h3.79l1.72,8h0l1.59-8h3.65Z"/><path class="cls-2" d="M218,39.93a9.23,9.23,0,0,1-.34,2.59,6.35,6.35,0,0,1-1,2,4.42,4.42,0,0,1-3.67,1.82,4.43,4.43,0,0,1-2.09-.48,4.77,4.77,0,0,1-1.57-1.33,6.07,6.07,0,0,1-1-2,9.2,9.2,0,0,1-.34-2.59,9.32,9.32,0,0,1,.34-2.6,6.19,6.19,0,0,1,1-2A4.63,4.63,0,0,1,211,34a4.56,4.56,0,0,1,5.77,1.33,6.35,6.35,0,0,1,1,2A9.35,9.35,0,0,1,218,39.93Zm-3.45,0a8.34,8.34,0,0,0-.09-1.28,4.65,4.65,0,0,0-.28-1,1.86,1.86,0,0,0-.47-.7,1,1,0,0,0-.7-.25,1,1,0,0,0-.68.25,1.85,1.85,0,0,0-.47.7,4.55,4.55,0,0,0-.28,1,8.81,8.81,0,0,0,0,2.55,4.55,4.55,0,0,0,.28,1,1.84,1.84,0,0,0,.47.7,1,1,0,0,0,.68.25,1,1,0,0,0,.7-.25,1.85,1.85,0,0,0,.47-.7,4.65,4.65,0,0,0,.28-1A8.35,8.35,0,0,0,214.6,39.91Z"/><path class="cls-2" d="M226.2,45.93v-1.7h0a3.34,3.34,0,0,1-1.06,1.5,2.85,2.85,0,0,1-1.88.63,2.64,2.64,0,0,1-2.62-1.56,5.17,5.17,0,0,1-.46-1.63,15.26,15.26,0,0,1-.11-1.91V33.91h3.61v7.35a5.46,5.46,0,0,0,0,.74,2.09,2.09,0,0,0,.16.6,1,1,0,0,0,.33.41.89.89,0,0,0,.54.16,1.15,1.15,0,0,0,1-.61,3.06,3.06,0,0,0,.37-1.6V33.91h3.61v12Z"/><path class="cls-2" d="M232.57,33.91h3.49v2h0q.64-2.39,2.41-2.39h.3l.28.06-.23,3.61-.36-.08a2.26,2.26,0,0,0-.42,0,1.37,1.37,0,0,0-.8.24,2.13,2.13,0,0,0-.59.63,3.11,3.11,0,0,0-.37.92,4.6,4.6,0,0,0-.13,1.08v6h-3.61Z"/><path class="cls-2" d="M248.79,33V36.3h3.88v3.15h-3.86v6.48h-3.72V29.66H253V33Z"/><path class="cls-2" d="M254.45,33.91h3.49v2h0q.64-2.39,2.41-2.39h.3l.28.06-.23,3.61-.36-.08a2.25,2.25,0,0,0-.42,0,1.37,1.37,0,0,0-.8.24,2.13,2.13,0,0,0-.59.63,3.14,3.14,0,0,0-.37.92,4.6,4.6,0,0,0-.13,1.08v6h-3.61Z"/><path class="cls-2" d="M265,40.83a3.51,3.51,0,0,0,.13,1,3,3,0,0,0,.33.78,1.68,1.68,0,0,0,.51.53,1.19,1.19,0,0,0,.67.2,1.26,1.26,0,0,0,1-.39,2.84,2.84,0,0,0,.57-.92l2.64,1.49a5.17,5.17,0,0,1-1.67,2.11,4.38,4.38,0,0,1-2.65.78,4.69,4.69,0,0,1-2-.41,4.44,4.44,0,0,1-1.58-1.23,5.9,5.9,0,0,1-1.06-2,9.12,9.12,0,0,1-.38-2.76,9.41,9.41,0,0,1,.36-2.68,6.09,6.09,0,0,1,1-2,4.66,4.66,0,0,1,1.55-1.3,4.27,4.27,0,0,1,2-.46,4.32,4.32,0,0,1,2.11.48,4.11,4.11,0,0,1,1.44,1.32,5.77,5.77,0,0,1,.82,2,12,12,0,0,1,.25,2.54v1Zm2.71-2.34a3.81,3.81,0,0,0-.3-1.61,1,1,0,0,0-1-.64,1,1,0,0,0-.63.22,1.89,1.89,0,0,0-.45.55,2.82,2.82,0,0,0-.28.74,3.36,3.36,0,0,0-.09.75Z"/><path class="cls-2" d="M275.84,40.83a3.51,3.51,0,0,0,.13,1,3,3,0,0,0,.33.78,1.68,1.68,0,0,0,.51.53,1.19,1.19,0,0,0,.67.2,1.26,1.26,0,0,0,1-.39A2.84,2.84,0,0,0,279,42l2.64,1.49A5.17,5.17,0,0,1,280,45.58a4.38,4.38,0,0,1-2.65.78,4.69,4.69,0,0,1-2-.41,4.44,4.44,0,0,1-1.58-1.23,5.9,5.9,0,0,1-1.06-2,9.12,9.12,0,0,1-.38-2.76,9.41,9.41,0,0,1,.36-2.68,6.09,6.09,0,0,1,1-2,4.66,4.66,0,0,1,1.55-1.3,4.27,4.27,0,0,1,2-.46,4.32,4.32,0,0,1,2.11.48,4.11,4.11,0,0,1,1.44,1.32,5.77,5.77,0,0,1,.82,2,12,12,0,0,1,.25,2.54v1Zm2.71-2.34a3.81,3.81,0,0,0-.3-1.61,1,1,0,0,0-1-.64,1,1,0,0,0-.63.22,1.89,1.89,0,0,0-.45.55,2.82,2.82,0,0,0-.28.74,3.36,3.36,0,0,0-.09.75Z"/><path class="cls-2" d="M289.76,45.93V44.48h0a3.08,3.08,0,0,1-.84,1.28,2.41,2.41,0,0,1-1.69.54,2.9,2.9,0,0,1-1.69-.52,4.2,4.2,0,0,1-1.25-1.4,7.38,7.38,0,0,1-.77-2.08,11.75,11.75,0,0,1-.26-2.55,11.36,11.36,0,0,1,.25-2.47,6.39,6.39,0,0,1,.76-2,3.92,3.92,0,0,1,1.25-1.3,3.14,3.14,0,0,1,1.71-.47,2.63,2.63,0,0,1,1.55.46,2.15,2.15,0,0,1,.86,1.13h.07V28.56h3.56V45.93Zm.07-6a8.34,8.34,0,0,0-.09-1.28,4.25,4.25,0,0,0-.29-1,2,2,0,0,0-.48-.7,1,1,0,0,0-.68-.25,1,1,0,0,0-.7.25,1.85,1.85,0,0,0-.47.7,4.6,4.6,0,0,0-.28,1,8.82,8.82,0,0,0,0,2.54,4.6,4.6,0,0,0,.28,1,1.84,1.84,0,0,0,.47.7,1,1,0,0,0,.7.25,1,1,0,0,0,.68-.25,2,2,0,0,0,.48-.7,4.25,4.25,0,0,0,.29-1A8.41,8.41,0,0,0,289.83,39.91Z"/><path class="cls-2" d="M305.35,39.93a9.23,9.23,0,0,1-.34,2.59,6.35,6.35,0,0,1-1,2,4.42,4.42,0,0,1-3.67,1.82,4.44,4.44,0,0,1-2.09-.48,4.77,4.77,0,0,1-1.57-1.33,6.05,6.05,0,0,1-1-2,9.23,9.23,0,0,1-.34-2.59,9.35,9.35,0,0,1,.34-2.6,6.19,6.19,0,0,1,1-2A4.62,4.62,0,0,1,298.26,34,4.56,4.56,0,0,1,304,35.29a6.35,6.35,0,0,1,1,2A9.35,9.35,0,0,1,305.35,39.93Zm-3.45,0a8.22,8.22,0,0,0-.09-1.28,4.65,4.65,0,0,0-.28-1,1.86,1.86,0,0,0-.47-.7,1,1,0,0,0-.7-.25,1,1,0,0,0-.68.25,1.85,1.85,0,0,0-.47.7,4.55,4.55,0,0,0-.28,1,8.91,8.91,0,0,0,0,2.55,4.55,4.55,0,0,0,.28,1,1.84,1.84,0,0,0,.47.7,1,1,0,0,0,.68.25,1,1,0,0,0,.7-.25,1.85,1.85,0,0,0,.47-.7,4.65,4.65,0,0,0,.28-1A8.22,8.22,0,0,0,301.9,39.91Z"/><path class="cls-2" d="M311,33.91v1.7h0a2.94,2.94,0,0,1,1-1.5,2.79,2.79,0,0,1,1.88-.63,2.64,2.64,0,0,1,1.92.62,3.38,3.38,0,0,1,.88,1.52h0a3.79,3.79,0,0,1,.42-.79,3.2,3.2,0,0,1,.64-.68,3.25,3.25,0,0,1,.87-.48,3.2,3.2,0,0,1,1.12-.18,3,3,0,0,1,1.68.42,2.8,2.8,0,0,1,1,1.14,5.44,5.44,0,0,1,.47,1.63,14,14,0,0,1,.13,1.91v7.35h-3.56V38.55a3.57,3.57,0,0,0-.23-1.33.86.86,0,0,0-.87-.58,1.12,1.12,0,0,0-1,.61,3.14,3.14,0,0,0-.36,1.6v7.08h-3.54V38.55a3.74,3.74,0,0,0-.22-1.33.84.84,0,0,0-.86-.58,1.12,1.12,0,0,0-1,.61,3.14,3.14,0,0,0-.36,1.6v7.08h-3.54v-12Z"/><path class="cls-2" d="M338.83,45.93a8.23,8.23,0,0,1-2.6.37,5.77,5.77,0,0,1-4.79-2.36,8.13,8.13,0,0,1-1.29-2.68,12.56,12.56,0,0,1-.45-3.47,12.69,12.69,0,0,1,.45-3.48,8.55,8.55,0,0,1,1.28-2.71,5.88,5.88,0,0,1,2-1.76,5.4,5.4,0,0,1,2.59-.62,6.11,6.11,0,0,1,2.77.56,5,5,0,0,1,1.76,1.41l-2,2.69a2.64,2.64,0,0,0-2.26-1.15,2.18,2.18,0,0,0-1.32.4,3.16,3.16,0,0,0-.92,1.09,5.57,5.57,0,0,0-.54,1.61,10.47,10.47,0,0,0-.17,2,11.3,11.3,0,0,0,.16,2,5.56,5.56,0,0,0,.52,1.61,3.25,3.25,0,0,0,.9,1.1,2.09,2.09,0,0,0,1.31.41,2.12,2.12,0,0,0,1.29-.34v-3h-1.75V36.3h5V45A6.42,6.42,0,0,1,338.83,45.93Z"/><path class="cls-2" d="M352.48,39.93a9.23,9.23,0,0,1-.34,2.59,6.35,6.35,0,0,1-1,2,4.42,4.42,0,0,1-3.67,1.82,4.44,4.44,0,0,1-2.09-.48,4.77,4.77,0,0,1-1.57-1.33,6.05,6.05,0,0,1-1-2,9.23,9.23,0,0,1-.34-2.59,9.35,9.35,0,0,1,.34-2.6,6.19,6.19,0,0,1,1-2A4.62,4.62,0,0,1,345.39,34a4.56,4.56,0,0,1,5.77,1.33,6.35,6.35,0,0,1,1,2A9.35,9.35,0,0,1,352.48,39.93Zm-3.45,0a8.22,8.22,0,0,0-.09-1.28,4.65,4.65,0,0,0-.28-1,1.86,1.86,0,0,0-.47-.7,1,1,0,0,0-.7-.25,1,1,0,0,0-.68.25,1.85,1.85,0,0,0-.47.7,4.55,4.55,0,0,0-.28,1,8.91,8.91,0,0,0,0,2.55,4.55,4.55,0,0,0,.28,1,1.84,1.84,0,0,0,.47.7,1,1,0,0,0,.68.25,1,1,0,0,0,.7-.25,1.85,1.85,0,0,0,.47-.7,4.65,4.65,0,0,0,.28-1A8.22,8.22,0,0,0,349,39.91Z"/><path class="cls-2" d="M359.58,44.43a2.37,2.37,0,0,1-.91,1.3,2.92,2.92,0,0,1-1.76.49,3.41,3.41,0,0,1-1.08-.18,2.77,2.77,0,0,1-1-.61,3.21,3.21,0,0,1-.76-1.13,4.43,4.43,0,0,1-.3-1.74,4.17,4.17,0,0,1,.45-2,3.66,3.66,0,0,1,1.17-1.29,4.71,4.71,0,0,1,1.64-.68,9,9,0,0,1,1.86-.2h.46v-.18a1.7,1.7,0,0,0-.4-1.26,1.47,1.47,0,0,0-1.07-.39,2.45,2.45,0,0,0-1.21.3,3.31,3.31,0,0,0-.93.76l-1.59-2.21A5,5,0,0,1,356,34a5.32,5.32,0,0,1,2.17-.48,5.2,5.2,0,0,1,2.07.37A3.33,3.33,0,0,1,361.6,35a4.55,4.55,0,0,1,.76,1.74,10.87,10.87,0,0,1,.23,2.36v6.85h-3V44.43Zm-.11-3.75h-.64a4.11,4.11,0,0,0-.76.07,1.63,1.63,0,0,0-.64.26,1.41,1.41,0,0,0-.44.51,1.71,1.71,0,0,0-.16.79,1.49,1.49,0,0,0,.31,1,1,1,0,0,0,.75.33,1.28,1.28,0,0,0,.72-.21,1.54,1.54,0,0,0,.49-.54,2.77,2.77,0,0,0,.28-.76,3.94,3.94,0,0,0,.09-.84Z"/><path class="cls-2" d="M365.28,45.93V28.56H369V45.93Z"/><path class="cls-2" d="M376.81,40.46h-3v-1a4.33,4.33,0,0,1,.41-2,5.72,5.72,0,0,1,1.17-1.5l.39-.41a5,5,0,0,0,.56-.72,1.57,1.57,0,0,0,.24-.86,2,2,0,0,0-.3-1.16,1.1,1.1,0,0,0-1-.42,1.18,1.18,0,0,0-.67.18,1.52,1.52,0,0,0-.45.46,2.69,2.69,0,0,0-.28.6,2.63,2.63,0,0,0-.13.6l-3-.53a6.59,6.59,0,0,1,.45-1.7,4.64,4.64,0,0,1,.92-1.42,4.36,4.36,0,0,1,1.41-1,4.8,4.8,0,0,1,2-.37,4.12,4.12,0,0,1,4.44,4.5,4.86,4.86,0,0,1-.16,1.31,4.68,4.68,0,0,1-.44,1.06,5,5,0,0,1-.67.91,10.12,10.12,0,0,1-.87.84,3,3,0,0,0-.79,1,2.47,2.47,0,0,0-.2,1Zm.6,3.61a2.12,2.12,0,0,1-.54,1.47,2,2,0,0,1-2.83,0,2.11,2.11,0,0,1-.54-1.47A2.17,2.17,0,0,1,374,42.6a1.92,1.92,0,0,1,2.83,0A2.17,2.17,0,0,1,377.41,44.07Z"/></g></g></svg>