<?xml version="1.0" encoding="utf-8"?>
<!-- Generator: Adobe Illustrator 21.1.0, SVG Export Plug-In . SVG Version: 6.00 Build 0)  -->
<svg version="1.1" id="Layer_1" xmlns="http://www.w3.org/2000/svg" xmlns:xlink="http://www.w3.org/1999/xlink" x="0px" y="0px"
	 viewBox="0 0 400 80" style="enable-background:new 0 0 400 80;" xml:space="preserve">
<style type="text/css">
	.st0{fill:#3A225F;}
	.st1{fill:#FCE800;}
</style>
<title>Goal</title>
<rect class="st0" width="400" height="80"/>
<path class="st1" d="M30.1,35.5c-0.3,0.3-0.4,0.8-0.1,1.2l3.5,4.2L30,44.9c-0.3,0.4-0.2,0.9,0.1,1.2c0.4,0.3,0.9,0.2,1.2-0.1
	l3.7-4.4c0.1,0,0.2,0,0.2,0h2.2l-2.8,3.4c-0.3,0.4-0.2,0.9,0.1,1.2c0.4,0.3,0.9,0.2,1.2-0.1l3.7-4.4H42l-2.8,3.4
	c-0.3,0.4-0.2,0.9,0.1,1.2c0.4,0.3,0.9,0.2,1.2-0.1l3.6-4.4h1.3C46.6,55,57.9,65.2,71.4,65c14.1-0.3,25.3-11.9,25-26
	c-0.3-14.1-11.9-25.3-26-25s-25.3,11.9-25,26h-1.2l-3.7-4.4l0,0c-0.3-0.4-0.8-0.4-1.2-0.1c-0.4,0.3-0.4,0.8-0.1,1.2L42,40h-2.5
	l-3.7-4.4c-0.3-0.4-0.8-0.4-1.2-0.1c-0.4,0.3-0.4,0.8-0.1,1.2l2.8,3.4h-2.2c-0.1,0-0.2,0-0.2,0l-3.7-4.4c0,0,0,0,0,0
	C31,35.2,30.4,35.2,30.1,35.5C30.1,35.5,30.1,35.5,30.1,35.5z M70.4,63.4C58,63.4,47.8,53.9,47,41.6h4.7c0.9,9.8,9.2,17.3,19,17.2
	c10.4-0.1,18.8-8.7,18.7-19.1s-8.7-18.8-19.1-18.7S51.5,29.6,51.6,40h-4.7c0-12.9,10.5-23.4,23.4-23.4c12.9,0,23.4,10.5,23.4,23.4
	S83.3,63.5,70.4,63.4L70.4,63.4z M53.1,40c-0.3-8.8,6.2-16.4,15-17.5c9.4-1.2,17.9,5.5,19.1,14.9s-5.5,17.9-14.9,19.1
	s-17.9-5.5-19.1-14.9H58c0.8,6.3,6.3,11,12.6,11c7-0.1,12.6-5.8,12.5-12.7c-0.1-7-5.8-12.6-12.7-12.5S57.8,33,57.9,40H53.1z
	 M59.4,40c-0.1-5.4,3.8-10,9.1-10.9c5.9-1,11.5,3,12.4,8.9c1,5.9-3,11.5-8.9,12.4c-5.9,1-11.5-3-12.4-8.9h4.8
	c0.8,2.8,3.4,4.8,6.3,4.7c3.5-0.1,6.4-3,6.3-6.6s-3-6.4-6.6-6.3c-3.5,0.1-6.4,3-6.3,6.6H59.4z M70.4,40.8c0-0.4-0.3-0.8-0.8-0.8
	h-3.9c0-1.9,1.2-3.7,3-4.4c2.4-0.9,5,0.3,5.9,2.7c0.9,2.4-0.3,5-2.7,5.9c-2.4,0.9-5-0.3-5.9-2.7h3.6C70,41.6,70.4,41.2,70.4,40.8z"
	/>
<path class="st1" d="M139.3,45.9h-3.9l-2-10.9l0,0l-2,10.9h-3.9l-3.1-16.3h3.8l1.7,11.3h0.1l1.8-11.3h3.6l1.8,11.3h0.1l1.7-11.3h3.6
	L139.3,45.9z"/>
<path class="st1" d="M147.5,45.9H144V28.6h3.6v7h0.1c0.2-0.6,0.5-1,1-1.4c0.5-0.4,1.2-0.6,1.8-0.6c0.6,0,1.2,0.1,1.7,0.4
	c0.4,0.3,0.8,0.7,1,1.1c0.2,0.5,0.4,1.1,0.5,1.6c0.1,0.6,0.1,1.3,0.1,1.9V46h-3.6v-7.4c0-0.5-0.1-0.9-0.2-1.3
	c-0.1-0.4-0.5-0.6-0.9-0.6c-0.4,0-0.8,0.2-1,0.6c-0.3,0.5-0.4,1-0.4,1.6L147.5,45.9z"/>
<path class="st1" d="M161.3,44.4c-0.1,0.5-0.5,1-0.9,1.3c-0.5,0.3-1.1,0.5-1.8,0.5c-0.4,0-0.7-0.1-1.1-0.2c-0.4-0.1-0.7-0.3-1-0.6
	c-0.3-0.3-0.6-0.7-0.8-1.1c-0.2-0.6-0.3-1.1-0.3-1.7c0-0.7,0.1-1.4,0.4-2c0.3-0.5,0.7-1,1.2-1.3c0.5-0.3,1.1-0.6,1.6-0.7
	c0.6-0.1,1.2-0.2,1.9-0.2h0.5v-0.2c0-0.5-0.1-0.9-0.4-1.3c-0.3-0.3-0.7-0.4-1.1-0.4c-0.4,0-0.8,0.1-1.2,0.3
	c-0.4,0.2-0.7,0.5-0.9,0.8l-1.6-2.2c0.5-0.6,1.1-1.1,1.8-1.4c0.7-0.3,1.4-0.5,2.2-0.5c0.7,0,1.4,0.1,2.1,0.4c0.6,0.2,1,0.6,1.4,1.1
	c0.4,0.5,0.6,1.1,0.8,1.7c0.2,0.8,0.2,1.6,0.2,2.4V46h-3L161.3,44.4L161.3,44.4z M161.2,40.7h-0.6c-0.3,0-0.5,0-0.8,0.1
	c-0.2,0-0.4,0.1-0.6,0.3c-0.2,0.1-0.3,0.3-0.4,0.5c-0.1,0.2-0.2,0.5-0.2,0.8c0,0.4,0.1,0.7,0.3,1c0.2,0.2,0.5,0.3,0.8,0.3
	c0.3,0,0.5-0.1,0.7-0.2c0.2-0.1,0.4-0.3,0.5-0.5c0.1-0.2,0.2-0.5,0.3-0.8c0.1-0.3,0.1-0.6,0.1-0.8V40.7z"/>
<path class="st1" d="M171.5,46.1c-0.4,0.1-0.7,0.1-1.1,0.1c-1,0.1-2-0.3-2.6-1c-0.6-0.8-0.9-1.9-0.8-2.9v-5.6h-1.4v-2.8h1.4V31h3.5
	v2.9h2.1v2.8h-2.1v4.8c0,0.4,0.1,0.9,0.3,1.3c0.2,0.3,0.5,0.4,0.9,0.4c0.3,0,0.6-0.1,0.8-0.2v2.8C172.1,46,171.8,46.1,171.5,46.1z"
	/>
<path class="st1" d="M175,29.7h2.7l-1.4,5.9h-2.4L175,29.7z"/>
<path class="st1" d="M184.7,37.3c-0.3-0.3-0.6-0.5-0.9-0.7c-0.3-0.2-0.7-0.3-1.1-0.2c-0.3,0-0.5,0.1-0.8,0.3
	c-0.2,0.2-0.3,0.5-0.3,0.8c0,0.3,0.1,0.5,0.3,0.7c0.4,0.2,0.8,0.4,1.2,0.5c0.4,0.1,0.7,0.3,1.1,0.4c0.7,0.4,1.3,1,1.6,1.8
	c0.2,0.5,0.3,0.9,0.3,1.4c0,0.6-0.1,1.3-0.4,1.9c-0.2,0.5-0.6,0.9-1,1.3c-0.4,0.3-0.9,0.6-1.3,0.7c-0.5,0.1-1,0.2-1.4,0.2
	c-0.8,0-1.6-0.1-2.3-0.4c-0.7-0.3-1.4-0.7-1.9-1.2l1.8-2.3c0.3,0.3,0.6,0.6,1,0.8c0.4,0.2,0.8,0.3,1.2,0.3c0.3,0,0.6-0.1,0.8-0.3
	c0.2-0.2,0.3-0.5,0.3-0.8c0-0.3-0.2-0.7-0.5-0.8c-0.4-0.2-0.9-0.4-1.4-0.6c-0.3-0.1-0.7-0.2-1-0.4c-0.3-0.2-0.6-0.4-0.9-0.7
	c-0.3-0.3-0.5-0.6-0.6-1c-0.2-0.5-0.3-0.9-0.2-1.4c0-0.6,0.1-1.2,0.4-1.8c0.2-0.5,0.6-0.9,1-1.2c0.4-0.3,0.8-0.6,1.3-0.7
	c0.5-0.2,1-0.2,1.5-0.2c0.7,0,1.4,0.1,2.1,0.4c0.7,0.2,1.3,0.6,1.9,1.1L184.7,37.3z"/>
<path class="st1" d="M198.9,46.3c-0.2,0.7-0.4,1.3-0.6,2c-0.2,0.6-0.5,1.1-0.9,1.6c-0.4,0.4-0.8,0.8-1.3,1c-0.6,0.3-1.3,0.4-2,0.4
	c-0.4,0-0.7,0-1.1-0.1c-0.4,0-0.7-0.1-1-0.2l0.5-3.3c0.2,0.1,0.3,0.1,0.5,0.1c0.2,0,0.3,0,0.5,0c0.4,0,0.7-0.1,1-0.4
	c0.2-0.3,0.4-0.6,0.4-0.9l0.2-0.7l-3.6-12.3h3.8l1.7,8l0,0l1.6-8h3.6L198.9,46.3z"/>
<path class="st1" d="M213,39.9c0,0.9-0.1,1.7-0.3,2.6c-0.2,0.7-0.6,1.4-1,2c-0.9,1.2-2.2,1.9-3.7,1.8c-0.7,0-1.4-0.2-2.1-0.5
	c-0.6-0.3-1.1-0.8-1.6-1.3c-0.5-0.6-0.8-1.3-1-2c-0.2-0.8-0.4-1.7-0.3-2.6c0-0.9,0.1-1.8,0.3-2.6c0.2-0.7,0.5-1.4,1-2
	c0.4-0.6,1-1,1.7-1.3c2-1,4.4-0.5,5.8,1.3c0.4,0.6,0.8,1.3,1,2C212.9,38.2,213,39.1,213,39.9z M209.5,39.9c0-0.4,0-0.9-0.1-1.3
	c-0.1-0.3-0.1-0.7-0.3-1c-0.1-0.3-0.3-0.5-0.5-0.7c-0.2-0.2-0.4-0.3-0.7-0.2c-0.2,0-0.5,0.1-0.7,0.2c-0.2,0.2-0.4,0.4-0.5,0.7
	c-0.1,0.3-0.2,0.7-0.3,1c-0.1,0.8-0.1,1.7,0,2.5c0.1,0.3,0.1,0.7,0.3,1c0.1,0.3,0.3,0.5,0.5,0.7c0.2,0.2,0.4,0.3,0.7,0.2
	c0.3,0,0.5-0.1,0.7-0.2c0.2-0.2,0.4-0.4,0.5-0.7c0.1-0.3,0.2-0.7,0.3-1C209.5,40.8,209.5,40.3,209.5,39.9L209.5,39.9z"/>
<path class="st1" d="M221.2,45.9v-1.7l0,0c-0.2,0.6-0.6,1.1-1.1,1.5c-0.5,0.4-1.2,0.7-1.9,0.6c-1.1,0.1-2.2-0.5-2.6-1.6
	c-0.2-0.5-0.4-1.1-0.5-1.6c-0.1-0.6-0.1-1.3-0.1-1.9v-7.3h3.6v7.3c0,0.2,0,0.5,0,0.7c0,0.2,0.1,0.4,0.2,0.6c0.1,0.2,0.2,0.3,0.3,0.4
	c0.2,0.1,0.3,0.2,0.5,0.2c0.4,0,0.8-0.2,1-0.6c0.3-0.5,0.4-1,0.4-1.6v-7h3.6v12L221.2,45.9z"/>
<path class="st1" d="M227.5,33.9h3.5v2l0,0c0.4-1.6,1.2-2.4,2.4-2.4h0.3l0.3,0.1l-0.2,3.6l-0.4-0.1c-0.1,0-0.3,0-0.4,0
	c-0.3,0-0.6,0.1-0.8,0.2c-0.2,0.2-0.4,0.4-0.6,0.6c-0.2,0.3-0.3,0.6-0.4,0.9c-0.1,0.4-0.1,0.7-0.1,1.1v6h-3.6L227.5,33.9z"/>
<path class="st1" d="M243.8,33v3.3h3.9v3.2h-3.9v6.5h-3.7V29.7h7.9V33H243.8z"/>
<path class="st1" d="M249.4,33.9h3.5v2l0,0c0.4-1.6,1.2-2.4,2.4-2.4h0.3l0.3,0.1l-0.2,3.6l-0.4-0.1c-0.1,0-0.3,0-0.4,0
	c-0.3,0-0.6,0.1-0.8,0.2c-0.2,0.2-0.4,0.4-0.6,0.6c-0.2,0.3-0.3,0.6-0.4,0.9c-0.1,0.4-0.1,0.7-0.1,1.1v6h-3.6L249.4,33.9z"/>
<path class="st1" d="M260,40.8c0,0.3,0,0.7,0.1,1c0.1,0.3,0.2,0.5,0.3,0.8c0.1,0.2,0.3,0.4,0.5,0.5c0.2,0.1,0.4,0.2,0.7,0.2
	c0.4,0,0.7-0.1,1-0.4c0.2-0.3,0.4-0.6,0.6-0.9l2.6,1.5c-0.4,0.8-0.9,1.6-1.7,2.1c-0.8,0.5-1.7,0.8-2.6,0.8c-0.7,0-1.4-0.1-2-0.4
	c-0.6-0.3-1.2-0.7-1.6-1.2c-0.5-0.6-0.8-1.3-1.1-2c-0.3-0.9-0.4-1.8-0.4-2.8c0-0.9,0.1-1.8,0.4-2.7c0.2-0.7,0.5-1.4,1-2
	c0.4-0.5,0.9-1,1.5-1.3c0.6-0.3,1.3-0.5,2-0.5c0.7,0,1.5,0.1,2.1,0.5c0.6,0.3,1.1,0.8,1.4,1.3c0.4,0.6,0.7,1.3,0.8,2
	c0.2,0.8,0.3,1.7,0.2,2.5v1L260,40.8z M262.7,38.5c0-0.6-0.1-1.1-0.3-1.6c-0.2-0.4-0.6-0.7-1-0.6c-0.2,0-0.5,0.1-0.6,0.2
	c-0.2,0.2-0.3,0.3-0.5,0.5c-0.1,0.2-0.2,0.5-0.3,0.7c-0.1,0.2-0.1,0.5-0.1,0.8L262.7,38.5z"/>
<path class="st1" d="M270.8,40.8c0,0.3,0,0.7,0.1,1c0.1,0.3,0.2,0.5,0.3,0.8c0.1,0.2,0.3,0.4,0.5,0.5c0.2,0.1,0.4,0.2,0.7,0.2
	c0.4,0,0.7-0.1,1-0.4c0.2-0.3,0.4-0.6,0.5-1l2.6,1.5c-0.4,0.8-0.9,1.5-1.6,2.1c-0.8,0.5-1.7,0.8-2.6,0.8c-0.7,0-1.4-0.1-2-0.4
	c-0.6-0.3-1.2-0.7-1.6-1.2c-0.5-0.6-0.8-1.3-1.1-2c-0.3-0.9-0.4-1.8-0.4-2.8c0-0.9,0.1-1.8,0.4-2.7c0.2-0.7,0.5-1.4,1-2
	c0.4-0.5,0.9-1,1.5-1.3c0.6-0.3,1.3-0.5,2-0.5c0.7,0,1.5,0.1,2.1,0.5c0.6,0.3,1.1,0.8,1.4,1.3c0.4,0.6,0.7,1.3,0.8,2
	c0.2,0.8,0.3,1.7,0.2,2.5v1L270.8,40.8z M273.5,38.5c0-0.6-0.1-1.1-0.3-1.6c-0.2-0.4-0.6-0.7-1-0.6c-0.2,0-0.5,0.1-0.6,0.2
	c-0.2,0.2-0.3,0.3-0.5,0.5c-0.1,0.2-0.2,0.5-0.3,0.7c-0.1,0.2-0.1,0.5-0.1,0.8L273.5,38.5z"/>
<path class="st1" d="M284.7,45.9v-1.5l0,0c-0.2,0.5-0.5,0.9-0.8,1.3c-0.5,0.4-1.1,0.6-1.7,0.5c-0.6,0-1.2-0.2-1.7-0.5
	c-0.5-0.4-0.9-0.8-1.2-1.4c-0.4-0.7-0.6-1.4-0.8-2.1c-0.2-0.8-0.3-1.7-0.3-2.5c0-0.8,0.1-1.7,0.2-2.5c0.1-0.7,0.4-1.4,0.8-2
	c0.3-0.5,0.7-1,1.2-1.3c0.5-0.3,1.1-0.5,1.7-0.5c0.6,0,1.1,0.1,1.5,0.5c0.4,0.3,0.7,0.7,0.9,1.1h0.1v-6.5h3.6v17.4H284.7z
	 M284.8,39.9c0-0.4,0-0.9-0.1-1.3c-0.1-0.3-0.2-0.7-0.3-1c-0.1-0.3-0.3-0.5-0.5-0.7c-0.2-0.2-0.4-0.3-0.7-0.2
	c-0.3,0-0.5,0.1-0.7,0.2c-0.2,0.2-0.4,0.4-0.5,0.7c-0.1,0.3-0.2,0.7-0.3,1c-0.1,0.8-0.1,1.7,0,2.5c0.1,0.3,0.1,0.7,0.3,1
	c0.1,0.3,0.3,0.5,0.5,0.7c0.2,0.2,0.4,0.3,0.7,0.2c0.2,0,0.5-0.1,0.7-0.2c0.2-0.2,0.4-0.4,0.5-0.7c0.1-0.3,0.2-0.7,0.3-1
	C284.8,40.8,284.8,40.3,284.8,39.9L284.8,39.9z"/>
<path class="st1" d="M300.3,39.9c0,0.9-0.1,1.7-0.3,2.6c-0.2,0.7-0.6,1.4-1,2c-0.9,1.2-2.2,1.9-3.7,1.8c-0.7,0-1.4-0.2-2.1-0.5
	c-0.6-0.3-1.1-0.8-1.6-1.3c-0.5-0.6-0.8-1.3-1-2c-0.2-0.8-0.4-1.7-0.3-2.6c0-0.9,0.1-1.8,0.3-2.6c0.2-0.7,0.5-1.4,1-2
	c0.4-0.6,1-1,1.6-1.3c2-1,4.4-0.5,5.7,1.3c0.4,0.6,0.8,1.3,1,2C300.2,38.1,300.3,39,300.3,39.9z M296.9,39.9c0-0.4,0-0.9-0.1-1.3
	c-0.1-0.3-0.1-0.7-0.3-1c-0.1-0.3-0.3-0.5-0.5-0.7c-0.2-0.2-0.4-0.3-0.7-0.2c-0.2,0-0.5,0.1-0.7,0.2c-0.2,0.2-0.4,0.4-0.5,0.7
	c-0.1,0.3-0.2,0.7-0.3,1c-0.1,0.8-0.1,1.7,0,2.5c0.1,0.3,0.1,0.7,0.3,1c0.1,0.3,0.3,0.5,0.5,0.7c0.2,0.2,0.4,0.3,0.7,0.2
	c0.3,0,0.5-0.1,0.7-0.2c0.2-0.2,0.4-0.4,0.5-0.7c0.1-0.3,0.2-0.7,0.3-1C296.8,40.8,296.9,40.3,296.9,39.9L296.9,39.9z"/>
<path class="st1" d="M306,33.9v1.7l0,0c0.2-0.6,0.5-1.1,1-1.5c0.5-0.4,1.2-0.7,1.9-0.6c0.7-0.1,1.4,0.2,1.9,0.6
	c0.4,0.4,0.7,0.9,0.9,1.5l0,0c0.1-0.3,0.2-0.5,0.4-0.8c0.2-0.3,0.4-0.5,0.6-0.7c0.3-0.2,0.6-0.4,0.9-0.5c0.4-0.1,0.7-0.2,1.1-0.2
	c0.6,0,1.2,0.1,1.7,0.4c0.4,0.3,0.8,0.7,1,1.1c0.2,0.5,0.4,1.1,0.5,1.6c0.1,0.6,0.1,1.3,0.1,1.9v7.3h-3.6v-7.4
	c0-0.5-0.1-0.9-0.2-1.3c-0.1-0.4-0.5-0.6-0.9-0.6c-0.4,0-0.8,0.2-1,0.6c-0.3,0.5-0.4,1-0.4,1.6v7.1h-3.5v-7.4c0-0.5-0.1-0.9-0.2-1.3
	c-0.1-0.4-0.5-0.6-0.9-0.6c-0.4,0-0.8,0.2-1,0.6c-0.3,0.5-0.4,1-0.4,1.6v7.1h-3.5v-12L306,33.9z"/>
<path class="st1" d="M333.8,45.9c-0.8,0.3-1.7,0.4-2.6,0.4c-1.9,0-3.7-0.8-4.8-2.4c-0.6-0.8-1-1.7-1.3-2.7c-0.3-1.1-0.5-2.3-0.5-3.5
	c0-1.2,0.1-2.3,0.5-3.5c0.3-1,0.7-1.9,1.3-2.7c0.5-0.7,1.2-1.3,2-1.8c0.8-0.4,1.7-0.6,2.6-0.6c1,0,1.9,0.2,2.8,0.6
	c0.7,0.3,1.3,0.8,1.8,1.4l-2,2.7c-0.5-0.7-1.4-1.2-2.3-1.2c-0.5,0-0.9,0.1-1.3,0.4c-0.4,0.3-0.7,0.7-0.9,1.1c-0.3,0.5-0.4,1-0.5,1.6
	c-0.1,0.7-0.2,1.3-0.2,2c0,0.7,0,1.3,0.2,2c0.1,0.6,0.3,1.1,0.5,1.6c0.2,0.4,0.5,0.8,0.9,1.1c0.4,0.3,0.8,0.4,1.3,0.4
	c0.5,0,0.9-0.1,1.3-0.3v-3h-1.8v-3.3h5V45C335.1,45.4,334.5,45.7,333.8,45.9z"/>
<path class="st1" d="M347.4,39.9c0,0.9-0.1,1.7-0.3,2.6c-0.2,0.7-0.6,1.4-1,2c-0.9,1.2-2.2,1.9-3.7,1.8c-0.7,0-1.4-0.2-2.1-0.5
	c-0.6-0.3-1.1-0.8-1.6-1.3c-0.5-0.6-0.8-1.3-1-2c-0.2-0.8-0.4-1.7-0.3-2.6c0-0.9,0.1-1.8,0.3-2.6c0.2-0.7,0.5-1.4,1-2
	c0.4-0.6,1-1,1.6-1.3c2-1,4.4-0.5,5.8,1.3c0.4,0.6,0.8,1.3,1,2C347.3,38.2,347.5,39.1,347.4,39.9z M344,39.9c0-0.4,0-0.9-0.1-1.3
	c-0.1-0.3-0.1-0.7-0.3-1c-0.1-0.3-0.3-0.5-0.5-0.7c-0.2-0.2-0.4-0.3-0.7-0.2c-0.2,0-0.5,0.1-0.7,0.2c-0.2,0.2-0.4,0.4-0.5,0.7
	c-0.1,0.3-0.2,0.7-0.3,1c-0.1,0.8-0.1,1.7,0,2.5c0.1,0.3,0.1,0.7,0.3,1c0.1,0.3,0.3,0.5,0.5,0.7c0.2,0.2,0.4,0.3,0.7,0.2
	c0.3,0,0.5-0.1,0.7-0.2c0.2-0.2,0.4-0.4,0.5-0.7c0.1-0.3,0.2-0.7,0.3-1C344,40.8,344,40.3,344,39.9L344,39.9z"/>
<path class="st1" d="M354.5,44.4c-0.1,0.5-0.5,1-0.9,1.3c-0.5,0.3-1.1,0.5-1.8,0.5c-0.4,0-0.7-0.1-1.1-0.2c-0.4-0.1-0.7-0.3-1-0.6
	c-0.3-0.3-0.6-0.7-0.8-1.1c-0.2-0.6-0.3-1.1-0.3-1.7c0-0.7,0.1-1.4,0.5-2c0.3-0.5,0.7-1,1.2-1.3c0.5-0.3,1.1-0.6,1.6-0.7
	c0.6-0.1,1.2-0.2,1.9-0.2h0.5v-0.2c0-0.5-0.1-0.9-0.4-1.3c-0.3-0.3-0.7-0.4-1.1-0.4c-0.4,0-0.8,0.1-1.2,0.3
	c-0.4,0.2-0.7,0.5-0.9,0.8l-1.6-2.2c0.5-0.6,1.1-1.1,1.8-1.4c0.7-0.3,1.4-0.5,2.2-0.5c0.7,0,1.4,0.1,2.1,0.4c0.5,0.2,1,0.6,1.4,1.1
	c0.4,0.5,0.6,1.1,0.8,1.7c0.2,0.8,0.2,1.6,0.2,2.4V46h-3L354.5,44.4L354.5,44.4z M354.4,40.7h-0.6c-0.3,0-0.5,0-0.8,0.1
	c-0.2,0-0.4,0.1-0.6,0.3c-0.2,0.1-0.3,0.3-0.4,0.5c-0.1,0.2-0.2,0.5-0.2,0.8c0,0.4,0.1,0.7,0.3,1c0.2,0.2,0.5,0.3,0.8,0.3
	c0.3,0,0.5-0.1,0.7-0.2c0.2-0.1,0.4-0.3,0.5-0.5c0.1-0.2,0.2-0.5,0.3-0.8c0.1-0.3,0.1-0.6,0.1-0.8L354.4,40.7z"/>
<path class="st1" d="M360.2,45.9V28.6h3.7v17.4H360.2z"/>
<path class="st1" d="M371.8,40.5h-3v-1c0-0.7,0.1-1.4,0.4-2c0.3-0.6,0.7-1.1,1.2-1.5l0.4-0.4c0.2-0.2,0.4-0.5,0.6-0.7
	c0.2-0.3,0.2-0.6,0.2-0.9c0-0.4-0.1-0.8-0.3-1.2c-0.2-0.3-0.6-0.5-1-0.4c-0.2,0-0.5,0.1-0.7,0.2c-0.2,0.1-0.3,0.3-0.5,0.5
	c-0.1,0.2-0.2,0.4-0.3,0.6c-0.1,0.2-0.1,0.4-0.1,0.6l-3-0.5c0.1-0.6,0.2-1.2,0.5-1.7c0.2-0.5,0.5-1,0.9-1.4c0.4-0.4,0.9-0.8,1.4-1
	c0.6-0.3,1.3-0.4,2-0.4c2.3-0.2,4.3,1.5,4.4,3.8c0,0.2,0,0.5,0,0.7c0,0.4,0,0.9-0.2,1.3c-0.1,0.4-0.3,0.7-0.4,1.1
	c-0.2,0.3-0.4,0.6-0.7,0.9c-0.3,0.3-0.6,0.6-0.9,0.8c-0.3,0.3-0.6,0.6-0.8,1c-0.1,0.3-0.2,0.7-0.2,1L371.8,40.5z M372.4,44.1
	c0,0.5-0.2,1.1-0.5,1.5c-0.8,0.8-2,0.8-2.8,0c0,0,0,0,0,0c-0.4-0.4-0.6-0.9-0.5-1.5c0-0.5,0.2-1.1,0.5-1.5c0.7-0.8,1.9-0.8,2.7-0.1
	c0,0,0.1,0.1,0.1,0.1C372.2,43,372.4,43.5,372.4,44.1z"/>
</svg>
