<?xml version="1.0" encoding="utf-8"?>
<!-- Generator: Adobe Illustrator 21.1.0, SVG Export Plug-In . SVG Version: 6.00 Build 0)  -->
<svg version="1.1" id="Layer_1" xmlns="http://www.w3.org/2000/svg" xmlns:xlink="http://www.w3.org/1999/xlink" x="0px" y="0px"
	 viewBox="0 0 65.6 50" style="enable-background:new 0 0 65.6 50;" xml:space="preserve">
<style type="text/css">
	.st0{fill:#FCE800;}
</style>
<title>goalicon</title>
<g id="Layer_2">
	<g id="Layer_1-2">
		<path class="st0" d="M-0.7,20.5c-0.4,0.3-0.4,0.8-0.1,1.2l3.5,4.1l-3.5,4.1c-0.3,0.4-0.2,0.9,0.1,1.2c0.4,0.3,0.9,0.2,1.2-0.1
			l3.7-4.4c0.1,0,0.2,0,0.2,0h2.2l-2.8,3.4c-0.3,0.4-0.2,0.9,0.1,1.2s0.9,0.2,1.2-0.1l3.7-4.4h2.5l-2.8,3.4
			c-0.3,0.4-0.2,0.9,0.1,1.2s0.9,0.2,1.2-0.1l3.7-4.4h1.3C15.8,40,27.1,50.2,40.6,50c14.1-0.3,25.3-11.9,25-26S53.7-1.3,39.6-1
			s-25.3,11.9-25,26h-1.2l-3.7-4.4c-0.3-0.4-0.8-0.4-1.2-0.1s-0.4,0.8-0.1,1.2l2.8,3.4H8.8l-3.7-4.4c-0.3-0.4-0.8-0.4-1.2-0.1
			s-0.4,0.8-0.1,1.2L6.6,25H4.4c-0.1,0-0.2,0-0.2,0l-3.7-4.4c0,0,0,0,0,0C0.2,20.2-0.3,20.2-0.7,20.5C-0.7,20.5-0.7,20.5-0.7,20.5z
			 M16.2,26.6h4.7c0.9,9.8,9.2,17.3,19,17.2c10.4-0.1,18.8-8.7,18.7-19.1S50,5.8,39.6,5.9C29.1,6,20.7,14.6,20.8,25h-4.7
			c0-12.9,10.5-23.4,23.4-23.4C52.5,1.6,63,12.1,63,25S52.5,48.4,39.6,48.5C27.3,48.4,17.1,38.9,16.2,26.6z M22.4,25
			c0-8.8,6.6-16.3,15.4-17.1c9.4-0.9,17.8,6,18.7,15.4s-6,17.8-15.4,18.7c-9.4,0.9-17.8-6-18.7-15.4h4.7c0.8,6.3,6.3,11,12.6,11
			c7-0.1,12.6-5.8,12.5-12.7s-5.8-12.6-12.7-12.5C32.6,12.3,27,18,27.1,25H22.4z M28.7,25c-0.1-5.4,3.8-10,9.1-10.9
			c5.9-1,11.5,3,12.4,8.9s-3,11.5-8.9,12.4c-5.9,1-11.5-3-12.4-8.9h4.8c0.8,2.8,3.5,4.7,6.4,4.6c3.5-0.1,6.3-3.1,6.2-6.7
			s-3.1-6.3-6.7-6.2c-3.5,0.1-6.3,3.1-6.2,6.7H28.7z M38.8,26.6c0.4,0,0.8-0.3,0.8-0.8S39.2,25,38.8,25h-3.9c0-1.9,1.2-3.7,3-4.4
			c2.4-0.9,5,0.3,5.9,2.7c0.9,2.4-0.3,5-2.7,5.9c-2.4,0.9-5-0.3-5.9-2.7H38.8C38.8,26.6,38.8,26.6,38.8,26.6z"/>
	</g>
</g>
</svg>
