<svg xmlns="http://www.w3.org/2000/svg" viewBox="0 0 65.6 50.01"><defs><style>.cls-1{fill:#fce800;}</style></defs><title>goalicon</title><g id="Layer_2" data-name="Layer 2"><g id="Layer_1-2" data-name="Layer 1"><path class="cls-1" d="M65.3,20.46a.83.83,0,0,0-1.18.11L60.42,25a.28.28,0,0,0-.25,0H58l2.77-3.37a.83.83,0,0,0-1.28-1.07L55.83,25H53.36l2.77-3.37a.83.83,0,0,0-1.28-1.07L51.19,25H50a25.5,25.5,0,1,0-.08,1.56h1.26L54.85,31a.83.83,0,0,0,1.28-1.07l-2.77-3.37h2.47L59.48,31a.83.83,0,0,0,1.28-1.07L58,26.57h2.17a.28.28,0,0,0,.25,0L64.12,31a.83.83,0,0,0,1.28-1.07l-3.46-4.15,3.46-4.15A.83.83,0,0,0,65.3,20.46ZM25,48.45A23.44,23.44,0,1,1,48.45,25H43.76a18.92,18.92,0,1,0-.08,1.56h4.69A23.46,23.46,0,0,1,25,48.45ZM37.51,25a12.64,12.64,0,1,0-.11,1.56h4.72A17.1,17.1,0,1,1,42.2,25Zm-6.25,0A6.42,6.42,0,1,0,31,26.57h4.8A10.83,10.83,0,1,1,35.94,25Zm-5.47,1.56h3.6a4.61,4.61,0,1,1,.3-1.56h-3.9a.78.78,0,1,0,0,1.56Z"/></g></g></svg>