<svg xmlns="http://www.w3.org/2000/svg" viewBox="0 0 233.87 73.94"><defs><style>.cls-1{fill:#fff;}.cls-2,.cls-3{fill:none;}.cls-2{stroke:#fff;stroke-miterlimit:10;}</style></defs><title>RJLogo</title><g id="Layer_2" data-name="Layer 2"><g id="Layer_1-2" data-name="Layer 1"><path class="cls-1" d="M.5.5V73.44H73.44V.5ZM40.72,30.78h3v4.76h4.85V38.4H43.7v4.76h-3V38.4H35.9V35.54h4.82ZM27.58,53.61,21.9,36.69H19.09V53.61H9.85V11.13H23.44q6.16,0,9.58,3.21t3.41,9.57a15.12,15.12,0,0,1-.54,4.2,11.68,11.68,0,0,1-1.41,3.18,8.9,8.9,0,0,1-1.94,2.16,7.56,7.56,0,0,1-2.09,1.2l7.24,19Zm34-5.26q0,6.66-3,10.5t-9.33,3.84a11.51,11.51,0,0,1-11.64-9.18L45.49,50a7,7,0,0,0,1.17,2.52,2.59,2.59,0,0,0,2.19,1.08A2.52,2.52,0,0,0,51.46,52a12.82,12.82,0,0,0,.63-4.5V19.25h9.54Z"/><path class="cls-1" d="M25.39,20.19a3.9,3.9,0,0,0-1.59-.81,7.29,7.29,0,0,0-1.71-.21h-3V29.91h2.82a5.37,5.37,0,0,0,3.57-1.29A5.17,5.17,0,0,0,27,24.45a6.6,6.6,0,0,0-.45-2.64A4.36,4.36,0,0,0,25.39,20.19Z"/><path class="cls-1" d="M97.27,33.69v-.35l.51-.07a4.17,4.17,0,0,0,.84-.25,2.41,2.41,0,0,0,.77-.49,1.06,1.06,0,0,0,.33-.81,4.63,4.63,0,0,0-.19-1Q99.33,30,99,28.95t-.8-2.29q-.46-1.26-1-2.62H87.89q-.53,1.33-1,2.54l-1,2.43a8.84,8.84,0,0,0-.73,2.66,1.05,1.05,0,0,0,.28.75,2.16,2.16,0,0,0,.72.49,4,4,0,0,0,.94.28l1,.16v.35H80.61v-.38a3.89,3.89,0,0,0,1.56-.49,3.46,3.46,0,0,0,.75-.52,7.6,7.6,0,0,0,.81-1.16,25.4,25.4,0,0,0,1.36-2.69q.74-1.65,1.65-3.75l1.87-4.32q1-2.22,1.91-4.48t1.78-4.22l-.35-.77a5.67,5.67,0,0,0,1.14-.67,6.72,6.72,0,0,0,.89-.8,7.23,7.23,0,0,0,.65-.81q.26-.38.4-.63h.28l2.06,5.51q1,2.61,1.87,5L101,23.21q.84,2.26,1.68,4.46.38,1.09.72,1.8l.75,1.63a4.65,4.65,0,0,0,.31.49,4.42,4.42,0,0,0,.65.72,4,4,0,0,0,1,.65,3.62,3.62,0,0,0,1.4.31v.42ZM92.68,12.48q-.21.46-.61,1.44t-1,2.38q-.6,1.4-1.31,3.17L88.2,23.3h8.71q-.6-1.57-1.21-3.15t-1.19-3l-1-2.66Q93,13.25,92.68,12.48Z"/><path class="cls-1" d="M126.47,27.74a8,8,0,0,1-1.23,2.45,7.25,7.25,0,0,1-1.8,1.7A9.78,9.78,0,0,1,121.27,33a12,12,0,0,1-2.37.56,18,18,0,0,1-2.37.16h-9.12v-.25a4.41,4.41,0,0,0,1.21-.33,2.36,2.36,0,0,0,.89-.6.85.85,0,0,0,.19-.43q.06-.3.11-.67t.08-.8q0-.42,0-.82t0-1q0-.6,0-1.31t0-1.46V18.84q0-.45,0-.84a5.09,5.09,0,0,0-.11-.7,1.16,1.16,0,0,0-.22-.49,2,2,0,0,0-.9-.62,5.85,5.85,0,0,0-1.17-.25v-.25h9.4q.83,0,1.65.07a14.26,14.26,0,0,1,1.65.25,8.44,8.44,0,0,1,1.63.53,9.41,9.41,0,0,1,2,1.15,7.65,7.65,0,0,1,1.61,1.66,8.18,8.18,0,0,1,1.1,2.22,9.3,9.3,0,0,1,.41,2.89A11,11,0,0,1,126.47,27.74Zm-3.08-6.07a9.06,9.06,0,0,0-1.25-2.49,8,8,0,0,0-1.9-1.89,5.86,5.86,0,0,0-2.4-1q-.5-.1-1.1-.16a14.64,14.64,0,0,0-1.48-.06h-.65l-.69,0-.62.06a2.54,2.54,0,0,0-.46.08q-.13,1.22-.15,3.38t0,5.13v2.92q0,1.3,0,2.13,0,.35,0,.76t.09.8a3.33,3.33,0,0,0,.16.7,1.25,1.25,0,0,0,.26.46,2.31,2.31,0,0,0,1.26.64,8.1,8.1,0,0,0,1.44.14q.62,0,1.29-.06a6.26,6.26,0,0,0,1.24-.24,6.63,6.63,0,0,0,4-3,10.58,10.58,0,0,0,1.34-5.51A9,9,0,0,0,123.39,21.67Z"/><path class="cls-1" d="M144.08,16.34a2.82,2.82,0,0,0-.56.4l-.21.24a3.07,3.07,0,0,0-.31.48q-.18.31-.41.79t-.54,1.2q-.5,1.2-1.1,2.69l-1.23,3.06q-.62,1.57-1.24,3.16l-1.16,3-1.23,2.5h-.3q-.82-2-1.54-3.86t-1.39-3.54l-1.3-3.29L130.32,20q-.18-.47-.32-.82l-.29-.65-.27-.58-.29-.58a3.8,3.8,0,0,0-.23-.37,2.24,2.24,0,0,0-.41-.45,2.51,2.51,0,0,0-.64-.39,2.72,2.72,0,0,0-1-.19v-.27h7.48v.25l-.45.08a2.93,2.93,0,0,0-.66.19,1.91,1.91,0,0,0-.6.39.83.83,0,0,0-.26.63,4.85,4.85,0,0,0,.27,1.06q.27.84.71,2t1,2.6l1.09,2.77q.54,1.36,1,2.54t.75,1.93q.12-.28.46-1.15l.85-2.17q.51-1.3,1.14-3l1.3-3.45a17,17,0,0,0,.65-2.09,5.72,5.72,0,0,0,.15-1,.85.85,0,0,0-.25-.62,2,2,0,0,0-.62-.41,4.18,4.18,0,0,0-.79-.25,5.74,5.74,0,0,0-.74-.11v-.25h5.82V16A2.75,2.75,0,0,0,144.08,16.34Z"/><path class="cls-1" d="M145.49,33.69v-.25a5,5,0,0,0,1.16-.33,2.47,2.47,0,0,0,.91-.65,1,1,0,0,0,.19-.42,5.5,5.5,0,0,0,.1-.65c0-.25,0-.51,0-.79s0-.55,0-.81,0-.55,0-1,0-.84,0-1.31,0-1,0-1.46V18.84q0-.45,0-.84a5.17,5.17,0,0,0-.11-.7,1.16,1.16,0,0,0-.23-.49,2,2,0,0,0-.86-.61,5.07,5.07,0,0,0-1.16-.26v-.25H153v.25a6.45,6.45,0,0,0-1.12.27,1.61,1.61,0,0,0-.93.8,2.38,2.38,0,0,0-.24,1.07q0,.65,0,1.23t0,1.24q0,.61,0,1.24v8.38q0,.73,0,1.4a1.79,1.79,0,0,0,.23,1,1.86,1.86,0,0,0,.95.65,5.13,5.13,0,0,0,1.18.27v.25Z"/><path class="cls-1" d="M167.78,30.92a4.86,4.86,0,0,1-1.35,1.63,5.73,5.73,0,0,1-2.06,1,10,10,0,0,1-2.62.32,12.62,12.62,0,0,1-2.1-.15,8.32,8.32,0,0,1-1.45-.36,5.2,5.2,0,0,1-.86-.39,1.12,1.12,0,0,0-.36-.17s-.16.1-.32.3-.32.39-.45.58H156l-.07-5h.25a7.91,7.91,0,0,0,.57,1.31,10.93,10.93,0,0,0,.76,1.2,6.75,6.75,0,0,0,.88,1,4.32,4.32,0,0,0,.89.65,7.11,7.11,0,0,0,1.13.45,4.69,4.69,0,0,0,4.35-.79,3.46,3.46,0,0,0,1.15-2.74,3.09,3.09,0,0,0-.22-1.23,2.89,2.89,0,0,0-.61-.91,3.73,3.73,0,0,0-.91-.66,9.92,9.92,0,0,0-1.12-.5l-1-.37-.84-.29-.8-.27-1-.36a5.42,5.42,0,0,1-1.25-.69,5.1,5.1,0,0,1-1-1,5.19,5.19,0,0,1-.73-1.3,4.16,4.16,0,0,1-.27-1.51,5.1,5.1,0,0,1,.49-2.33,4.76,4.76,0,0,1,1.33-1.62,5.59,5.59,0,0,1,1.92-1,8.24,8.24,0,0,1,2.29-.31,8.55,8.55,0,0,1,1.92.19,7.68,7.68,0,0,1,1.31.41,4.5,4.5,0,0,1,.77.41,1.76,1.76,0,0,0,.29.19c.05,0,.15-.1.31-.3s.3-.4.44-.6h.27v4.63h-.27a10,10,0,0,0-.77-1.64,7.4,7.4,0,0,0-1.1-1.45,5.32,5.32,0,0,0-1.42-1,3.92,3.92,0,0,0-1.77-.4,4.68,4.68,0,0,0-1.46.23,3.39,3.39,0,0,0-1.2.67,3.1,3.1,0,0,0-.8,1.11,3.77,3.77,0,0,0-.29,1.51,2.87,2.87,0,0,0,.8,2.13,5.67,5.67,0,0,0,2.07,1.27l.94.35.86.29.86.29.91.32a5.81,5.81,0,0,1,2.63,1.81,5.09,5.09,0,0,1,.45,5.11Z"/><path class="cls-1" d="M188.17,28.27a9.29,9.29,0,0,1-2,2.95,9,9,0,0,1-3,1.93,10.13,10.13,0,0,1-7.24,0,9,9,0,0,1-3-1.87,8.83,8.83,0,0,1-2-2.9,9.17,9.17,0,0,1-.74-3.71,9.27,9.27,0,0,1,.77-3.86A8.69,8.69,0,0,1,173,17.9a9.18,9.18,0,0,1,3.08-1.82,10.82,10.82,0,0,1,3.71-.64,9.29,9.29,0,0,1,3.81.75,8.66,8.66,0,0,1,2.86,2,8.82,8.82,0,0,1,1.8,2.91,9.66,9.66,0,0,1,.63,3.45A9.06,9.06,0,0,1,188.17,28.27Zm-2.74-6.75a9.74,9.74,0,0,0-1.17-2.81,6.69,6.69,0,0,0-2-2.05,4.87,4.87,0,0,0-2.77-.79,5,5,0,0,0-2.81.79,6.42,6.42,0,0,0-2,2,9.42,9.42,0,0,0-1.12,2.84,14.39,14.39,0,0,0-.36,3.21,13.24,13.24,0,0,0,.4,3.28,9.09,9.09,0,0,0,1.19,2.77,6.21,6.21,0,0,0,2,1.92,5.19,5.19,0,0,0,2.76.73,4.71,4.71,0,0,0,2.74-.8,6.76,6.76,0,0,0,1.94-2.06,9.92,9.92,0,0,0,1.16-2.84,13.14,13.14,0,0,0,.39-3.15A12.64,12.64,0,0,0,185.43,21.52Z"/><path class="cls-1" d="M204.44,33.69l-.32-.34-.23-.26a4.83,4.83,0,0,1-.31-.44l-.59-.86q-.48-.7-.84-1.26t-.74-1.11q-.37-.55-.81-1.11t-1-1.26A10.23,10.23,0,0,0,198.48,26a2.69,2.69,0,0,0-1.24-.62,3.86,3.86,0,0,0-.73-.1l-.58,0V28q0,1.2,0,2t0,1.38a1.83,1.83,0,0,0,.27,1,2.2,2.2,0,0,0,.77.66,3.52,3.52,0,0,0,1.6.39v.25h-8v-.25a7,7,0,0,0,1.2-.3,2,2,0,0,0,.9-.6,1.14,1.14,0,0,0,.2-.45,4.75,4.75,0,0,0,.11-.67q0-.37.06-.8t0-.82q0-.35,0-1t0-1.31q0-.71,0-1.46V19.74q0-.45,0-.91t0-.87a4.74,4.74,0,0,0-.12-.75,1.07,1.07,0,0,0-.24-.49,1.88,1.88,0,0,0-.84-.54,8.47,8.47,0,0,0-1.14-.24v-.25h6.85q1.68,0,3,.1a5.94,5.94,0,0,1,2.38.67A4.81,4.81,0,0,1,204.79,18a4.31,4.31,0,0,1,.68,2.49,4,4,0,0,1-.34,1.66,4.42,4.42,0,0,1-.9,1.3,5.5,5.5,0,0,1-1.31,1,10.17,10.17,0,0,1-1.57.67v.08a3.21,3.21,0,0,1,.82.65,9.14,9.14,0,0,1,.77,1l1.41,2,1.36,2a7.65,7.65,0,0,0,1.8,1.9,4.82,4.82,0,0,0,2,.77v.25ZM202,18.12a4.32,4.32,0,0,0-1.83-1.55,5.46,5.46,0,0,0-1.26-.4,7.46,7.46,0,0,0-1.39-.12q-.53,0-.85,0l-.5,0c0,.1,0,.19,0,.26a2,2,0,0,0,0,.29q0,.18,0,.49l0,.89q0,.88,0,2t0,2.13v2.75q1,0,1.91-.09a7.8,7.8,0,0,0,1.71-.36,4.6,4.6,0,0,0,1.38-.67,3.93,3.93,0,0,0,.94-1,4,4,0,0,0,.54-1.16,4.8,4.8,0,0,0,.18-1.3A4,4,0,0,0,202,18.12Z"/><path class="cls-1" d="M224.54,16.29a3.87,3.87,0,0,0-.93.65,6.21,6.21,0,0,0-.81,1q-.39.55-.84,1.25l-.84,1.29L220,22.12l-1.09,1.68L218.12,25v5q0,.73,0,1.41a1.88,1.88,0,0,0,.24,1,1.75,1.75,0,0,0,1,.73,11.32,11.32,0,0,0,1.15.27v.25h-7.7v-.25A5.67,5.67,0,0,0,214,33.2a2.57,2.57,0,0,0,1-.79.84.84,0,0,0,.19-.43,6.5,6.5,0,0,0,.1-.67q0-.37.05-.8t0-.83q0-.7,0-1.66t0-2.34l-.3-.48-.61-1-.8-1.31-.86-1.41-.8-1.29-.62-1-.86-1.32a7.16,7.16,0,0,0-.79-1,4.35,4.35,0,0,0-.79-.68,1.77,1.77,0,0,0-.89-.27v-.25h7.58v.25l-.75.08a3.59,3.59,0,0,0-.7.16,1.45,1.45,0,0,0-.52.3.67.67,0,0,0-.2.51,2.38,2.38,0,0,0,.36,1q.36.66.76,1.34l.65,1.09q.38.64.83,1.35l.91,1.46.86,1.43q.32-.47.8-1.21l1-1.5.92-1.46q.44-.7.66-1.1l.27-.46q.15-.26.29-.55a5.11,5.11,0,0,0,.24-.59,1.76,1.76,0,0,0,.1-.55.91.91,0,0,0-.2-.62,1.35,1.35,0,0,0-.51-.35,3.36,3.36,0,0,0-.69-.19l-.73-.11v-.25h5.77v.25A3.92,3.92,0,0,0,224.54,16.29Z"/><path class="cls-1" d="M108.12,54.33a1.82,1.82,0,0,0-1,.72,2.47,2.47,0,0,0-.28,1.19q0,.81,0,1.61V63a7.68,7.68,0,0,1-1.21.7,22.24,22.24,0,0,1-5.41,1.85,16.46,16.46,0,0,1-3.36.35,19.11,19.11,0,0,1-6-.86,11.84,11.84,0,0,1-4.43-2.52,11,11,0,0,1-2.77-4.06,14.3,14.3,0,0,1-1-5.37,13.41,13.41,0,0,1,.17-2,13.66,13.66,0,0,1,.61-2.4,13.37,13.37,0,0,1,1.23-2.56,12.39,12.39,0,0,1,2-2.45A12.62,12.62,0,0,1,90.83,41a15.78,15.78,0,0,1,5.95-1,16.77,16.77,0,0,1,3.71.37,18.82,18.82,0,0,1,2.71.8,11.31,11.31,0,0,1,1.7.81,3.49,3.49,0,0,0,.67.37s.17-.14.39-.42l.77-1H107v7.63h-.42a12.13,12.13,0,0,0-1.15-3,10.92,10.92,0,0,0-1.65-2.31,8.28,8.28,0,0,0-2.87-1.92A10,10,0,0,0,97,40.6a8.42,8.42,0,0,0-4.17,1,9.91,9.91,0,0,0-3.15,2.77,13.06,13.06,0,0,0-2,4,15.92,15.92,0,0,0-.7,4.74,17.59,17.59,0,0,0,.67,5A11.44,11.44,0,0,0,89.6,62a8.77,8.77,0,0,0,3.08,2.5,9.34,9.34,0,0,0,4.17.89A8.39,8.39,0,0,0,100,64.8a4.76,4.76,0,0,0,2.29-1.87,4.31,4.31,0,0,0,.42-1.61,19.78,19.78,0,0,0,.14-2.38,17.94,17.94,0,0,0-.12-2.21,2.78,2.78,0,0,0-.72-1.61A4.16,4.16,0,0,0,99.16,54v-.35h10.25V54A6.81,6.81,0,0,0,108.12,54.33Z"/><path class="cls-1" d="M125.4,65.69l-.32-.34-.23-.26a4.83,4.83,0,0,1-.31-.44l-.59-.86q-.48-.7-.84-1.26t-.74-1.11q-.37-.55-.81-1.11t-1-1.26A10.23,10.23,0,0,0,119.44,58a2.69,2.69,0,0,0-1.24-.62,3.86,3.86,0,0,0-.73-.1l-.58,0V60q0,1.2,0,2t0,1.38a1.83,1.83,0,0,0,.27,1,2.2,2.2,0,0,0,.77.66,3.52,3.52,0,0,0,1.6.39v.25h-8v-.25a7,7,0,0,0,1.2-.3,2,2,0,0,0,.9-.6,1.14,1.14,0,0,0,.2-.45,4.75,4.75,0,0,0,.11-.67q0-.37.06-.8t0-.82q0-.35,0-1t0-1.31q0-.71,0-1.46V51.74q0-.45,0-.91t0-.87a4.74,4.74,0,0,0-.12-.75,1.07,1.07,0,0,0-.24-.49,1.88,1.88,0,0,0-.84-.54,8.47,8.47,0,0,0-1.14-.24v-.25h6.85q1.68,0,3,.1a5.94,5.94,0,0,1,2.38.67A4.81,4.81,0,0,1,125.75,50a4.31,4.31,0,0,1,.68,2.49,4,4,0,0,1-.34,1.66,4.42,4.42,0,0,1-.9,1.3,5.5,5.5,0,0,1-1.31,1,10.17,10.17,0,0,1-1.57.67v.08a3.21,3.21,0,0,1,.82.65,9.14,9.14,0,0,1,.77,1l1.41,2,1.36,2a7.65,7.65,0,0,0,1.8,1.9,4.82,4.82,0,0,0,2,.77v.25Zm-2.47-15.58a4.32,4.32,0,0,0-1.83-1.55,5.46,5.46,0,0,0-1.26-.4,7.46,7.46,0,0,0-1.39-.12q-.53,0-.85,0l-.5,0c0,.1,0,.19,0,.26a2,2,0,0,0,0,.29q0,.18,0,.49l0,.89q0,.88,0,2t0,2.13v2.75q1,0,1.91-.09a7.8,7.8,0,0,0,1.71-.36,4.6,4.6,0,0,0,1.38-.67,3.93,3.93,0,0,0,.94-1,4,4,0,0,0,.54-1.16,4.8,4.8,0,0,0,.18-1.3A4,4,0,0,0,122.93,50.12Z"/><path class="cls-1" d="M148.38,60.27a9.29,9.29,0,0,1-2,2.95,9,9,0,0,1-3,1.93,10.13,10.13,0,0,1-7.24,0,9,9,0,0,1-3-1.87,8.83,8.83,0,0,1-2-2.9,9.17,9.17,0,0,1-.74-3.71,9.27,9.27,0,0,1,.77-3.86,8.69,8.69,0,0,1,2.09-2.9,9.18,9.18,0,0,1,3.08-1.82,10.82,10.82,0,0,1,3.71-.64,9.29,9.29,0,0,1,3.81.75,8.66,8.66,0,0,1,2.86,2,8.82,8.82,0,0,1,1.8,2.91,9.66,9.66,0,0,1,.63,3.45A9.06,9.06,0,0,1,148.38,60.27Zm-2.74-6.75a9.74,9.74,0,0,0-1.17-2.81,6.69,6.69,0,0,0-2-2.05,4.87,4.87,0,0,0-2.77-.79,5,5,0,0,0-2.81.79,6.42,6.42,0,0,0-2,2,9.42,9.42,0,0,0-1.12,2.84,14.39,14.39,0,0,0-.36,3.21,13.24,13.24,0,0,0,.4,3.28,9.09,9.09,0,0,0,1.19,2.77,6.21,6.21,0,0,0,2,1.92,5.19,5.19,0,0,0,2.76.73,4.71,4.71,0,0,0,2.74-.8,6.76,6.76,0,0,0,1.94-2.06,9.92,9.92,0,0,0,1.16-2.84,13.14,13.14,0,0,0,.39-3.15A12.64,12.64,0,0,0,145.64,53.52Z"/><path class="cls-1" d="M169,48.42a2.27,2.27,0,0,0-.84,1.07,2.65,2.65,0,0,0-.14.58q-.06.4-.11.92t-.07,1.11q0,.59,0,1.16,0,1.08-.06,2.4t-.09,3l-.06,1.2a8.21,8.21,0,0,1-.24,1.54,6.93,6.93,0,0,1-.64,1.63,5,5,0,0,1-1.24,1.48,5.92,5.92,0,0,1-2,1,12.44,12.44,0,0,1-6.11,0,6.05,6.05,0,0,1-2-1,5,5,0,0,1-1.24-1.4,6.77,6.77,0,0,1-.65-1.5,6.27,6.27,0,0,1-.25-1.35q0-.61,0-.91,0-.7,0-1.83t0-2.5V50.84q0-.45,0-.84a5.17,5.17,0,0,0-.11-.7,1.15,1.15,0,0,0-.23-.49,2,2,0,0,0-.86-.61,5.07,5.07,0,0,0-1.16-.26v-.25h7.45v.25a7.56,7.56,0,0,0-.75.15,2.37,2.37,0,0,0-.73.31,1.79,1.79,0,0,0-.55.59,2,2,0,0,0-.25,1q0,.65,0,1.15t0,1v5q0,.57,0,1.11t0,1.14a7.82,7.82,0,0,0,.4,2.41,5.41,5.41,0,0,0,1.05,1.85A4.52,4.52,0,0,0,159,64.73a5.67,5.67,0,0,0,2.23.41,7.78,7.78,0,0,0,2.41-.33,4.74,4.74,0,0,0,1.65-.9,4.45,4.45,0,0,0,1-1.33,6.54,6.54,0,0,0,.58-1.6,12,12,0,0,0,.25-1.74q.06-.89.06-1.74V53.27q0-.5,0-1t0-1q0-.47-.07-.89a2.74,2.74,0,0,0-.15-.66,2.34,2.34,0,0,0-.86-1.14,4.19,4.19,0,0,0-1.81-.61v-.25h6.2v.25A3.55,3.55,0,0,0,169,48.42Z"/><path class="cls-1" d="M186.3,54.57a4.77,4.77,0,0,1-.79,1.33,5,5,0,0,1-1.14,1,7,7,0,0,1-1.32.66,8.26,8.26,0,0,1-1.5.38q-.8.13-1.61.19t-1.59.06H177v2.35q0,.42,0,.79t0,.79q0,.8,0,1.38a1.83,1.83,0,0,0,.27,1,2.11,2.11,0,0,0,.77.65,3.64,3.64,0,0,0,1.6.38v.25h-8v-.25a7,7,0,0,0,1.2-.3,2,2,0,0,0,.9-.6,1.14,1.14,0,0,0,.2-.45,4.75,4.75,0,0,0,.11-.67q0-.37.06-.8t0-.82q0-.35,0-1t0-1.31q0-.71,0-1.46V51.74q0-.45,0-.91t0-.87a4.74,4.74,0,0,0-.12-.75,1.07,1.07,0,0,0-.24-.49,1.87,1.87,0,0,0-1-.54q-.59-.14-1.26-.24v-.25h7.1a23.47,23.47,0,0,1,2.93.16,6.64,6.64,0,0,1,2.4.79,5.08,5.08,0,0,1,1.82,1.7,4.62,4.62,0,0,1,.73,2.6A4.48,4.48,0,0,1,186.3,54.57Zm-3.14-4.37A4.55,4.55,0,0,0,180,48.12a9.59,9.59,0,0,0-1.4-.1,6.73,6.73,0,0,0-.81,0l-.46.06a1.81,1.81,0,0,1-.06.26,1.6,1.6,0,0,0-.06.29q0,.18-.05.49t0,.89q0,.88,0,2.13t0,2.45v3.2q1,0,1.93-.06a6.27,6.27,0,0,0,1.67-.34,4.68,4.68,0,0,0,2.45-1.81,5,5,0,0,0,.85-2.84A4.59,4.59,0,0,0,183.16,50.19Z"/><rect class="cls-2" x="0.5" y="0.5" width="232.87" height="72.94"/><polygon class="cls-3" points="40.72 30.78 43.68 30.78 43.68 35.54 48.52 35.54 48.52 38.41 43.7 38.41 43.7 43.16 40.74 43.16 40.74 38.41 35.9 38.41 35.9 35.54 40.72 35.54 40.72 30.78"/></g></g></svg>